{
.appVersion = "3260";
.formatVersion = 3;
DisplayStrings = (
"Zero Handles
FLWflw7.

Angled Handles
ABCDEFGHIJKLMNOPQRSTUVWXYZabcdefghijklmnopqrstuvwxyz0123456789*!.?-$+@&

Almost Orthogonal Lines
BDFHILVWbdfhilvw78.?+

Bad Outline Order
ABGPRabgpr0689!$@

Bad Path Orientation
ABCDEFGHIJKMNOPQRSTUVWXYZabcdefghijkmnopqrstuvwxyz013456789*!-$+@&

"
);
customParameters = (
{
name = panose;
value = (
0,
0,
5,
0,
0,
0,
0,
0,
0,
0
);
},
{
name = unicodeRanges;
value = (
0
);
},
{
name = codePageRanges;
value = (
"1252"
);
},
{
name = blueScale;
value = 0.037;
},
{
name = glyphOrder;
value = (
.notdef,
A,
B,
C,
D,
E,
F,
G,
H,
I,
J,
K,
L,
M,
N,
O,
P,
Q,
R,
S,
T,
U,
V,
W,
X,
Y,
Z,
a,
b,
c,
d,
e,
f,
g,
h,
i,
j,
k,
l,
m,
n,
o,
p,
q,
r,
s,
t,
u,
v,
w,
x,
y,
z,
zero,
one,
two,
three,
four,
five,
six,
seven,
eight,
nine,
asterisk,
exclam,
period,
question,
semicolon,
hyphen,
space,
CR,
.null,
dollar,
plus,
at,
ampersand
);
}
);
date = "2017-03-01 08:48:58 +0000";
familyName = guppyslang;
fontMaster = (
{
customParameters = (
{
name = typoAscender;
value = 750;
},
{
name = typoDescender;
value = -250;
},
{
name = typoLineGap;
value = 200;
},
{
name = winAscent;
value = 950;
},
{
name = winDescent;
value = 250;
},
{
name = hheaAscender;
value = 950;
},
{
name = hheaDescender;
value = -250;
},
{
name = strikeoutPosition;
value = 300;
},
{
name = strikeoutSize;
value = 50;
},
{
name = underlinePosition;
value = -75;
}
);
id = m01;
metricValues = (
{
pos = 750;
},
{
pos = 700;
},
{
pos = 500;
},
{
},
{
pos = -250;
},
{
}
);
name = Regular;
}
);
glyphs = (
{
glyphname = A;
lastChange = "2024-06-01 14:12:38 +0000";
layers = (
{
layerId = m01;
shapes = (
{
closed = 1;
nodes = (
(799,-18,o),
(811,21,o),
(810,62,cs),
(809,102,o),
(794,144,o),
(779,179,cs),
(748,250,o),
(692,305,o),
(635,356,cs),
(626,364,o),
(616,372,o),
(607,379,c),
(640,380,o),
(676,378,o),
(710,377,cs),
(744,376,o),
(778,377,o),
(811,384,cs),
(827,388,o),
(839,402,o),
(841,418,cs),
(843,434,o),
(837,451,o),
(821,458,cs),
(774,479,o),
(720,486,o),
(664,486,cs),
(608,485,o),
(551,475,o),
(496,462,c),
(487,469,o),
(479,474,o),
(471,479,cs),
(435,503,o),
(392,540,o),
(371,584,c),
(381,587,l),
(384,587,o),
(387,588,o),
(390,589,cs),
(422,598,o),
(454,604,o),
(487,608,cs),
(520,612,o),
(552,617,o),
(585,623,cs),
(606,627,o),
(614,644,o),
(614,661,cs),
(613,678,o),
(602,694,o),
(585,701,cs),
(559,710,o),
(532,715,o),
(504,715,cs),
(476,715,o),
(448,712,o),
(421,707,cs),
(365,695,o),
(310,674,o),
(261,655,cs),
(228,642,o),
(192,629,o),
(156,621,cs),
(119,613,o),
(82,610,o),
(46,618,cs),
(35,621,o),
(24,610,o),
(31,599,cs),
(62,554,o),
(114,541,o),
(166,540,c),
(161,513,o),
(155,486,o),
(148,461,cs),
(134,409,o),
(109,359,o),
(80,316,cs),
(65,294,o),
(52,271,o),
(41,248,cs),
(14,196,o),
(7,131,o),
(36,78,cs),
(52,49,o),
(74,23,o),
(101,8,cs),
(128,-8,o),
(158,-13,o),
(193,-4,cs),
(202,-2,o),
(209,2,o),
(215,9,cs),
(226,21,o),
(230,37,o),
(227,54,cs),
(223,70,o),
(206,84,o),
(189,98,cs),
(180,105,o),
(173,112,o),
(166,120,cs),
(152,135,o),
(141,153,o),
(141,178,cs),
(141,186,o),
(142,195,o),
(145,204,cs),
(149,222,o),
(158,240,o),
(167,257,cs),
(178,281,l),
(179,282,o),
(179,283,o),
(179,284,cs),
(179,285,o),
(179,286,o),
(180,287,c),
(251,312,o),
(322,332,o),
(394,351,cs),
(450,363,l),
(457,357,o),
(463,352,o),
(469,347,cs),
(485,331,ls),
(512,306,o),
(538,281,o),
(563,254,cs),
(612,200,o),
(654,141,o),
(670,77,cs),
(673,60,o),
(675,43,o),
(676,26,cs),
(676,9,o),
(681,-8,o),
(690,-23,cs),
(705,-47,o),
(738,-59,o),
(762,-42,cs)
);
},
{
closed = 1;
nodes = (
(219,408,o),
(223,474,o),
(192,541,c),
(197,542,o),
(203,542,o),
(208,543,cs),
(213,543,o),
(218,544,o),
(223,545,cs),
(260,550,o),
(295,561,o),
(331,572,c),
(324,547,o),
(328,522,o),
(337,498,cs),
(346,474,o),
(363,451,o),
(382,430,c),
(317,409,o),
(254,381,o),
(199,340,c)
);
}
);
width = 860;
}
);
note = A;
unicode = 65;
},
{
glyphname = B;
lastChange = "2024-06-01 14:12:38 +0000";
layers = (
{
layerId = m01;
shapes = (
{
closed = 1;
nodes = (
(453,-8,o),
(512,19,o),
(558,60,cs),
(604,100,o),
(636,153,o),
(647,216,cs),
(660,293,o),
(637,358,o),
(593,407,cs),
(549,456,o),
(484,490,o),
(413,506,c),
(425,527,o),
(436,557,o),
(444,586,cs),
(451,614,o),
(456,643,o),
(457,664,cs),
(458,676,o),
(449,682,o),
(440,682,c),
(439,683,o),
(437,684,o),
(435,684,c),
(412,695,o),
(383,697,o),
(352,697,cs),
(321,696,o),
(290,690,o),
(266,686,cs),
(193,671,o),
(124,658,o),
(49,670,cs),
(40,671,o),
(32,665,o),
(29,658,cs),
(25,651,o),
(26,643,o),
(35,639,cs),
(44,636,l),
(85,588,o),
(118,531,o),
(137,471,c),
(131,466,o),
(125,462,o),
(119,458,cs),
(113,453,o),
(107,449,o),
(102,445,cs),
(97,442,o),
(93,437,o),
(92,432,cs),
(89,417,o),
(103,405,o),
(116,408,cs),
(117,408,ls),
(128,409,o),
(139,411,o),
(148,414,c),
(149,413,o),
(150,411,o),
(150,408,cs),
(155,368,o),
(150,331,o),
(145,295,cs),
(140,259,o),
(134,222,o),
(134,185,cs),
(134,180,o),
(136,177,o),
(137,174,c),
(135,176,l),
(134,176,o),
(132,176,o),
(131,177,cs),
(103,198,o),
(72,194,o),
(53,176,cs),
(34,158,o),
(28,127,o),
(52,99,cs),
(93,52,o),
(132,19,o),
(191,-5,cs),
(254,-30,o),
(328,-28,o),
(392,-17,cs)
);
},
{
closed = 1;
nodes = (
(285,93,o),
(219,117,o),
(159,158,c),
(167,157,o),
(174,160,o),
(181,165,cs),
(203,181,o),
(218,200,o),
(227,221,cs),
(244,263,o),
(246,309,o),
(238,354,cs),
(234,377,o),
(230,398,o),
(227,417,c),
(226,420,o),
(226,422,o),
(226,424,c),
(225,425,o),
(225,427,o),
(224,430,c),
(225,431,o),
(227,431,o),
(230,431,cs),
(282,438,o),
(335,430,o),
(387,419,cs),
(434,408,o),
(475,387,o),
(503,355,cs),
(531,323,o),
(544,280,o),
(535,231,cs),
(526,192,o),
(500,162,o),
(468,141,cs),
(436,120,o),
(397,108,o),
(361,104,cs)
);
},
{
closed = 1;
nodes = (
(180,541,o),
(152,578,o),
(116,611,c),
(152,602,o),
(187,599,o),
(226,599,cs),
(243,600,o),
(263,600,o),
(284,601,cs),
(305,601,o),
(326,603,o),
(347,606,c),
(334,577,o),
(329,547,o),
(326,516,c),
(282,517,o),
(239,512,o),
(200,500,c)
);
}
);
width = 672;
}
);
note = B;
unicode = 66;
},
{
glyphname = C;
lastChange = "2024-06-01 14:12:38 +0000";
layers = (
{
layerId = m01;
shapes = (
{
closed = 1;
nodes = (
(513,3,o),
(566,16,o),
(616,40,cs),
(666,63,o),
(712,93,o),
(747,133,cs),
(782,172,o),
(803,217,o),
(799,268,cs),
(798,283,o),
(789,296,o),
(777,304,cs),
(765,312,o),
(749,313,o),
(736,304,cs),
(718,292,o),
(702,278,o),
(688,263,cs),
(659,231,o),
(625,198,o),
(578,173,cs),
(531,148,o),
(487,133,o),
(436,133,cs),
(410,133,o),
(384,136,o),
(359,141,cs),
(307,152,o),
(259,173,o),
(224,201,cs),
(185,233,o),
(158,274,o),
(146,319,cs),
(133,363,o),
(136,410,o),
(156,457,cs),
(176,500,o),
(211,535,o),
(255,551,cs),
(283,562,o),
(337,573,o),
(382,570,c),
(391,546,o),
(404,524,o),
(417,507,cs),
(453,460,o),
(506,411,o),
(566,396,cs),
(576,393,o),
(585,394,o),
(593,397,cs),
(609,404,o),
(620,418,o),
(622,436,cs),
(624,454,o),
(613,475,o),
(597,496,cs),
(581,516,o),
(562,535,o),
(542,554,cs),
(522,573,o),
(505,590,o),
(492,610,cs),
(479,629,o),
(462,651,o),
(453,673,cs),
(444,695,o),
(417,714,o),
(394,703,cs),
(370,691,o),
(361,661,o),
(368,621,c),
(276,640,o),
(181,624,o),
(109,556,cs),
(54,504,o),
(25,437,o),
(20,369,cs),
(15,300,o),
(34,229,o),
(77,169,cs),
(120,106,o),
(182,62,o),
(251,34,cs),
(320,6,o),
(397,-5,o),
(470,0,cs)
);
}
);
width = 821;
}
);
note = C;
unicode = 67;
},
{
glyphname = D;
lastChange = "2024-06-01 14:12:38 +0000";
layers = (
{
layerId = m01;
shapes = (
{
closed = 1;
nodes = (
(357,-46,o),
(445,-34,o),
(524,2,cs),
(603,38,o),
(673,98,o),
(724,167,cs),
(769,228,o),
(794,312,o),
(789,391,cs),
(784,470,o),
(750,543,o),
(678,587,cs),
(662,596,o),
(645,604,o),
(628,610,cs),
(593,621,o),
(555,626,o),
(519,627,cs),
(482,628,o),
(437,629,o),
(385,629,cs),
(359,629,o),
(333,630,o),
(306,632,cs),
(286,633,o),
(257,634,o),
(230,641,cs),
(202,648,o),
(178,660,o),
(173,683,cs),
(169,695,o),
(159,700,o),
(150,698,cs),
(141,696,o),
(132,689,o),
(131,677,cs),
(129,648,o),
(137,624,o),
(156,607,cs),
(193,572,o),
(251,555,o),
(311,548,cs),
(370,541,o),
(402,539,o),
(437,539,cs),
(454,538,o),
(472,538,o),
(489,537,cs),
(524,536,o),
(557,532,o),
(592,523,cs),
(667,500,o),
(689,443,o),
(686,370,cs),
(682,307,o),
(649,250,o),
(601,204,cs),
(553,158,o),
(491,124,o),
(431,112,c),
(435,117,o),
(437,122,o),
(438,127,cs),
(443,150,o),
(442,173,o),
(436,197,cs),
(423,244,o),
(398,291,o),
(368,333,cs),
(326,391,ls),
(275,464,o),
(211,524,o),
(134,569,cs),
(130,572,o),
(126,572,o),
(122,571,cs),
(114,568,o),
(108,562,o),
(108,554,cs),
(108,550,o),
(110,546,o),
(113,543,cs),
(128,529,o),
(143,515,o),
(158,502,cs),
(173,488,o),
(186,473,o),
(199,457,cs),
(223,425,o),
(240,386,o),
(256,350,cs),
(265,331,o),
(275,311,o),
(285,291,cs),
(304,251,o),
(324,211,o),
(340,168,cs),
(347,146,o),
(360,127,o),
(378,111,cs),
(381,109,ls),
(382,108,o),
(383,108,o),
(384,107,c),
(325,106,o),
(271,124,o),
(220,159,cs),
(206,169,o),
(195,180,o),
(187,193,cs),
(170,217,o),
(161,246,o),
(157,278,cs),
(151,324,ls),
(148,344,o),
(136,358,o),
(120,363,cs),
(104,367,o),
(86,361,o),
(74,344,cs),
(37,291,o),
(29,237,o),
(41,188,cs),
(53,139,o),
(85,93,o),
(126,57,cs),
(167,20,o),
(218,-9,o),
(269,-22,cs)
);
}
);
width = 821;
}
);
note = D;
unicode = 68;
},
{
glyphname = E;
lastChange = "2024-06-01 14:12:38 +0000";
layers = (
{
layerId = m01;
shapes = (
{
closed = 1;
nodes = (
(500,14,o),
(575,35,o),
(636,67,cs),
(665,83,o),
(697,105,o),
(721,133,cs),
(744,161,o),
(759,194,o),
(759,231,cs),
(759,263,o),
(750,295,o),
(732,320,cs),
(714,344,o),
(687,363,o),
(654,371,cs),
(641,374,o),
(627,371,o),
(617,364,cs),
(607,356,o),
(599,345,o),
(600,330,cs),
(601,315,o),
(604,301,o),
(609,288,cs),
(614,275,o),
(617,261,o),
(618,246,cs),
(618,231,o),
(605,220,o),
(589,210,cs),
(573,200,o),
(555,191,o),
(546,187,cs),
(510,168,o),
(465,159,o),
(419,156,cs),
(373,153,o),
(326,156,o),
(286,163,cs),
(255,168,o),
(225,175,o),
(202,198,cs),
(186,213,o),
(187,232,o),
(195,249,cs),
(203,266,o),
(217,282,o),
(228,293,cs),
(259,324,o),
(302,341,o),
(347,347,cs),
(391,353,o),
(436,346,o),
(475,330,cs),
(496,321,o),
(514,336,o),
(519,354,cs),
(524,372,o),
(518,394,o),
(495,402,cs),
(492,403,o),
(491,404,o),
(490,404,c),
(497,423,o),
(488,444,o),
(465,453,cs),
(433,466,o),
(398,469,o),
(363,471,cs),
(328,473,o),
(293,476,o),
(260,491,cs),
(225,508,o),
(200,550,o),
(207,590,cs),
(208,602,o),
(224,612,o),
(244,618,cs),
(264,624,o),
(289,628,o),
(310,629,c),
(333,604,o),
(366,584,o),
(401,574,cs),
(436,564,o),
(471,561,o),
(499,572,cs),
(510,576,o),
(519,586,o),
(521,598,cs),
(523,609,o),
(518,619,o),
(506,626,cs),
(491,633,o),
(477,639,o),
(462,642,cs),
(447,645,o),
(431,649,o),
(415,653,cs),
(400,657,o),
(380,664,o),
(362,674,cs),
(344,684,o),
(328,696,o),
(327,715,cs),
(327,727,o),
(317,736,o),
(307,737,cs),
(297,738,o),
(286,734,o),
(283,721,cs),
(278,701,o),
(281,685,o),
(289,666,c),
(254,669,o),
(222,671,o),
(187,663,cs),
(156,655,o),
(137,632,o),
(129,604,cs),
(120,575,o),
(119,541,o),
(124,516,cs),
(135,465,o),
(161,429,o),
(198,402,c),
(171,389,o),
(147,374,o),
(125,355,cs),
(72,308,o),
(54,237,o),
(67,170,cs),
(74,135,o),
(94,108,o),
(120,87,cs),
(146,66,o),
(177,49,o),
(206,37,cs),
(270,10,o),
(348,2,o),
(424,8,cs)
);
}
);
width = 774;
}
);
note = E;
unicode = 69;
},
{
glyphname = F;
lastChange = "2024-06-01 14:12:38 +0000";
layers = (
{
layerId = m01;
shapes = (
{
closed = 1;
nodes = (
(490,22,o),
(509,45,o),
(520,73,cs),
(531,101,o),
(531,135,o),
(527,163,cs),
(520,214,o),
(501,262,o),
(478,309,c),
(520,306,ls),
(543,303,o),
(565,298,o),
(586,291,cs),
(607,284,o),
(628,276,o),
(649,269,cs),
(669,262,o),
(687,272,o),
(698,286,cs),
(709,300,o),
(713,320,o),
(702,337,cs),
(673,382,o),
(626,406,o),
(574,418,cs),
(521,430,o),
(463,429,o),
(411,428,c),
(388,463,o),
(366,495,o),
(343,527,cs),
(339,532,o),
(335,538,o),
(331,544,cs),
(327,550,o),
(323,556,o),
(318,561,c),
(398,572,o),
(476,580,o),
(556,576,cs),
(595,573,o),
(637,571,o),
(668,544,cs),
(675,539,o),
(681,533,o),
(686,527,cs),
(691,520,o),
(696,514,o),
(701,508,cs),
(711,495,o),
(720,484,o),
(739,477,cs),
(758,470,o),
(777,485,o),
(782,502,cs),
(791,533,o),
(783,563,o),
(766,589,cs),
(749,615,o),
(722,637,o),
(697,650,cs),
(664,667,o),
(624,676,o),
(584,680,cs),
(544,684,o),
(502,681,o),
(466,680,cs),
(383,675,o),
(301,661,o),
(220,646,c),
(216,646,l),
(214,645,o),
(212,645,o),
(211,645,cs),
(204,646,o),
(200,647,o),
(197,647,cs),
(186,648,o),
(177,644,o),
(170,637,c),
(143,633,o),
(117,629,o),
(89,629,cs),
(73,629,o),
(46,635,o),
(21,645,cs),
(-4,655,o),
(-27,668,o),
(-35,685,cs),
(-38,690,o),
(-46,688,o),
(-47,683,cs),
(-55,656,o),
(-45,632,o),
(-28,611,cs),
(-12,590,o),
(13,573,o),
(33,561,cs),
(81,533,o),
(143,537,o),
(203,545,c),
(234,504,o),
(258,460,o),
(285,415,c),
(244,408,o),
(206,399,o),
(170,388,cs),
(147,381,o),
(120,373,o),
(96,361,cs),
(71,349,o),
(48,333,o),
(36,310,c),
(35,309,o),
(34,307,o),
(34,306,c),
(33,305,o),
(33,304,o),
(33,304,c),
(31,301,l),
(32,301,l),
(28,285,o),
(37,264,o),
(60,264,cs),
(83,265,o),
(106,268,o),
(129,274,cs),
(152,280,o),
(174,285,o),
(197,290,cs),
(245,299,o),
(293,306,o),
(342,309,c),
(363,268,o),
(381,225,o),
(394,180,cs),
(403,147,ls),
(407,126,o),
(406,100,o),
(403,77,cs),
(402,66,o),
(404,54,o),
(409,42,cs),
(417,21,o),
(435,9,o),
(458,14,cs)
);
}
);
width = 801;
}
);
note = F;
unicode = 70;
},
{
glyphname = G;
lastChange = "2024-06-01 14:12:38 +0000";
layers = (
{
layerId = m01;
shapes = (
{
closed = 1;
nodes = (
(622,22,o),
(689,60,o),
(733,121,cs),
(745,138,o),
(741,159,o),
(730,175,cs),
(718,190,o),
(699,199,o),
(679,192,cs),
(662,186,o),
(645,180,o),
(629,175,cs),
(613,169,o),
(597,164,o),
(581,159,cs),
(549,149,o),
(516,140,o),
(479,137,cs),
(411,132,o),
(332,152,o),
(272,187,cs),
(208,223,o),
(166,289,o),
(163,358,c),
(179,342,o),
(197,329,o),
(218,320,cs),
(258,300,o),
(302,290,o),
(349,286,cs),
(396,282,o),
(457,281,o),
(532,284,cs),
(569,285,o),
(607,284,o),
(645,281,cs),
(664,280,o),
(680,277,o),
(695,272,cs),
(724,262,o),
(750,247,o),
(775,228,cs),
(788,219,o),
(801,209,o),
(815,199,cs),
(824,192,o),
(839,194,o),
(849,200,cs),
(859,206,o),
(866,216,o),
(865,228,cs),
(861,263,o),
(849,291,o),
(828,312,cs),
(787,353,o),
(727,375,o),
(661,381,cs),
(595,387,o),
(542,385,o),
(471,376,cs),
(435,371,o),
(399,369,o),
(364,369,cs),
(292,368,o),
(222,379,o),
(173,426,c),
(180,442,o),
(188,458,o),
(200,473,cs),
(223,502,o),
(254,524,o),
(289,540,c),
(312,520,o),
(335,504,o),
(356,489,cs),
(387,469,o),
(436,454,o),
(482,452,cs),
(528,450,o),
(571,463,o),
(594,502,cs),
(621,547,o),
(601,582,o),
(566,607,cs),
(531,631,o),
(482,645,o),
(450,649,cs),
(389,656,o),
(326,647,o),
(269,627,c),
(246,648,o),
(227,669,o),
(211,692,c),
(204,700,o),
(193,695,o),
(196,686,c),
(200,660,o),
(210,635,o),
(227,611,c),
(220,608,o),
(214,606,o),
(207,602,cs),
(114,557,o),
(63,479,o),
(51,394,cs),
(38,309,o),
(63,215,o),
(123,139,cs),
(167,83,o),
(236,42,o),
(312,19,cs),
(388,-5,o),
(471,-10,o),
(547,6,cs)
);
},
{
closed = 1;
nodes = (
(439,523,o),
(406,535,o),
(375,550,cs),
(368,553,o),
(363,556,o),
(356,560,c),
(403,569,o),
(451,566,o),
(494,554,cs),
(507,550,o),
(515,547,o),
(518,544,cs),
(520,541,o),
(519,538,o),
(516,536,cs),
(508,531,o),
(490,527,o),
(474,526,cs)
);
}
);
width = 878;
}
);
note = G;
unicode = 71;
},
{
glyphname = H;
lastChange = "2024-06-01 14:12:38 +0000";
layers = (
{
layerId = m01;
shapes = (
{
closed = 1;
nodes = (
(769,-123,o),
(788,-116,o),
(797,-100,cs),
(810,-78,o),
(818,-55,o),
(820,-31,cs),
(824,16,o),
(812,64,o),
(788,111,cs),
(764,158,o),
(734,202,o),
(702,242,cs),
(686,261,o),
(671,279,o),
(658,296,cs),
(634,326,o),
(610,355,o),
(587,384,cs),
(539,441,o),
(503,510,o),
(497,575,cs),
(494,608,o),
(490,641,o),
(486,675,c),
(485,675,l),
(485,686,o),
(478,695,o),
(470,699,cs),
(461,703,o),
(448,702,o),
(439,694,cs),
(419,677,o),
(410,648,o),
(406,617,cs),
(402,586,o),
(403,555,o),
(406,531,cs),
(411,480,o),
(425,435,o),
(445,391,c),
(396,388,o),
(346,376,o),
(302,367,cs),
(266,361,l),
(259,408,o),
(252,453,o),
(240,497,cs),
(228,540,o),
(209,581,o),
(181,617,cs),
(161,642,o),
(130,638,o),
(109,622,cs),
(88,606,o),
(76,576,o),
(93,549,cs),
(102,536,o),
(109,521,o),
(114,505,cs),
(125,473,o),
(131,438,o),
(135,403,cs),
(141,351,l),
(130,351,o),
(118,352,o),
(107,354,cs),
(96,355,o),
(84,357,o),
(73,359,cs),
(49,362,o),
(27,365,o),
(3,362,cs),
(-12,359,o),
(-23,338,o),
(-6,329,cs),
(47,302,o),
(100,286,o),
(153,279,c),
(168,203,o),
(186,133,o),
(233,70,cs),
(253,45,o),
(281,42,o),
(301,54,cs),
(321,66,o),
(332,91,o),
(319,120,cs),
(296,169,o),
(285,221,o),
(277,277,c),
(302,279,o),
(327,282,o),
(352,285,cs),
(426,293,ls),
(438,294,o),
(450,295,o),
(463,296,cs),
(501,299,l),
(520,270,o),
(541,243,o),
(562,216,cs),
(605,163,o),
(635,116,o),
(658,81,cs),
(681,45,o),
(695,7,o),
(703,-31,cs),
(706,-50,o),
(711,-70,o),
(716,-89,cs),
(720,-109,o),
(736,-119,o),
(753,-121,cs)
);
}
);
width = 825;
}
);
note = H;
unicode = 72;
},
{
glyphname = I;
lastChange = "2024-06-01 14:12:38 +0000";
layers = (
{
layerId = m01;
shapes = (
{
closed = 1;
nodes = (
(715,-9,o),
(727,11,o),
(727,31,cs),
(727,51,o),
(715,71,o),
(694,75,cs),
(597,96,ls),
(566,103,o),
(534,113,o),
(502,128,cs),
(459,148,o),
(435,161,o),
(395,186,c),
(382,255,o),
(379,342,o),
(378,414,cs),
(378,482,o),
(376,557,o),
(389,625,c),
(389,628,l),
(421,636,o),
(452,646,o),
(479,658,cs),
(498,666,o),
(505,686,o),
(502,706,cs),
(499,725,o),
(488,742,o),
(468,746,cs),
(448,750,o),
(427,751,o),
(406,750,cs),
(363,746,o),
(319,738,o),
(275,730,cs),
(253,726,o),
(231,724,o),
(210,723,cs),
(167,722,o),
(127,728,o),
(92,755,c),
(92,754,l),
(77,765,o),
(56,758,o),
(48,738,cs),
(41,719,o),
(42,702,o),
(50,688,cs),
(66,659,o),
(98,638,o),
(134,627,cs),
(170,615,o),
(199,611,o),
(238,611,cs),
(257,611,o),
(277,612,o),
(297,613,c),
(290,581,o),
(285,548,o),
(282,514,cs),
(277,445,o),
(266,352,o),
(295,244,c),
(252,259,o),
(206,263,o),
(159,260,cs),
(135,259,o),
(106,255,o),
(80,247,cs),
(54,238,o),
(28,224,o),
(15,203,cs),
(8,192,o),
(11,183,o),
(18,177,cs),
(25,171,o),
(36,169,o),
(45,174,c),
(45,172,l),
(69,185,o),
(99,189,o),
(130,189,cs),
(161,189,o),
(192,185,o),
(217,180,cs),
(278,168,o),
(326,127,o),
(373,88,cs),
(420,49,o),
(470,19,o),
(523,0,cs),
(576,-20,o),
(634,-25,o),
(694,-13,cs)
);
}
);
width = 754;
}
);
note = I;
unicode = 73;
},
{
glyphname = J;
lastChange = "2024-06-01 14:12:38 +0000";
layers = (
{
layerId = m01;
shapes = (
{
closed = 1;
nodes = (
(401,-27,o),
(469,-20,o),
(532,-7,cs),
(557,-2,o),
(582,10,o),
(602,27,cs),
(621,44,o),
(633,67,o),
(636,95,cs),
(640,155,o),
(607,210,o),
(572,257,cs),
(529,316,o),
(489,367,o),
(458,432,cs),
(439,473,o),
(417,527,o),
(409,578,c),
(417,579,o),
(425,579,o),
(433,580,cs),
(440,581,o),
(448,581,o),
(456,582,cs),
(497,585,o),
(538,585,o),
(579,581,cs),
(619,576,o),
(660,573,o),
(701,572,cs),
(721,572,o),
(736,587,o),
(741,604,cs),
(746,621,o),
(742,642,o),
(722,650,cs),
(609,701,o),
(492,702,o),
(369,683,cs),
(308,675,o),
(247,665,o),
(187,656,cs),
(173,654,o),
(159,653,o),
(144,653,cs),
(115,653,o),
(89,659,o),
(76,673,cs),
(69,680,o),
(62,686,o),
(55,691,c),
(53,696,o),
(49,698,o),
(43,699,cs),
(20,700,o),
(13,687,o),
(13,670,cs),
(13,653,o),
(19,632,o),
(26,620,cs),
(42,592,o),
(71,576,o),
(104,568,cs),
(137,560,o),
(172,559,o),
(200,560,cs),
(247,561,o),
(291,565,o),
(338,570,c),
(337,540,o),
(340,510,o),
(348,480,cs),
(363,420,o),
(378,371,o),
(402,330,cs),
(425,289,o),
(452,249,o),
(478,209,cs),
(491,189,o),
(502,168,o),
(513,146,cs),
(517,137,o),
(520,127,o),
(522,118,c),
(522,112,l),
(515,109,o),
(506,107,o),
(497,107,cs),
(487,106,o),
(478,106,o),
(471,105,cs),
(422,102,o),
(369,103,o),
(321,112,cs),
(314,113,o),
(306,114,o),
(297,116,cs),
(278,120,o),
(259,126,o),
(243,136,cs),
(227,146,o),
(221,164,o),
(223,186,cs),
(225,208,o),
(232,231,o),
(241,253,cs),
(245,264,o),
(248,274,o),
(251,283,cs),
(255,300,o),
(246,315,o),
(234,323,cs),
(221,331,o),
(204,330,o),
(191,318,cs),
(147,275,o),
(116,223,o),
(109,171,cs),
(102,118,o),
(121,66,o),
(177,25,cs),
(221,-6,o),
(286,-14,o),
(337,-19,cs)
);
}
);
width = 752;
}
);
note = J;
unicode = 74;
},
{
glyphname = K;
lastChange = "2024-06-01 14:12:38 +0000";
layers = (
{
layerId = m01;
shapes = (
{
closed = 1;
nodes = (
(526,-272,o),
(542,-255,o),
(547,-231,cs),
(553,-195,o),
(555,-159,o),
(552,-124,cs),
(549,-89,o),
(547,-54,o),
(547,-18,cs),
(547,42,o),
(547,123,o),
(559,183,cs),
(562,198,o),
(567,215,o),
(573,236,cs),
(579,257,o),
(583,278,o),
(586,300,cs),
(591,343,o),
(588,384,o),
(559,408,c),
(542,425,o),
(503,431,o),
(461,430,cs),
(419,429,o),
(373,420,o),
(344,408,c),
(344,419,o),
(346,431,o),
(350,442,cs),
(354,453,o),
(356,461,o),
(356,466,c),
(368,507,o),
(370,550,o),
(373,591,cs),
(376,632,o),
(379,674,o),
(391,715,c),
(391,721,o),
(388,726,o),
(382,730,cs),
(370,738,o),
(342,725,o),
(326,698,cs),
(310,670,o),
(298,635,o),
(289,599,cs),
(284,581,o),
(279,565,o),
(273,550,c),
(267,526,o),
(261,504,o),
(255,485,cs),
(249,465,o),
(243,443,o),
(237,420,c),
(225,420,o),
(225,408,o),
(225,395,c),
(220,408,o),
(215,417,o),
(210,424,cs),
(205,431,o),
(202,437,o),
(202,443,c),
(173,484,o),
(140,540,o),
(121,600,cs),
(101,659,o),
(95,721,o),
(119,774,c),
(119,780,o),
(117,785,o),
(113,789,cs),
(109,793,o),
(107,792,o),
(107,786,c),
(80,774,o),
(62,757,o),
(51,734,cs),
(30,688,o),
(29,630,o),
(37,575,cs),
(45,519,o),
(50,471,o),
(79,415,cs),
(119,336,ls),
(166,253,o),
(178,184,o),
(178,100,c),
(183,81,o),
(196,68,o),
(209,62,cs),
(222,56,o),
(237,59,o),
(249,76,cs),
(273,105,o),
(284,138,o),
(289,171,cs),
(293,203,o),
(290,236,o),
(285,265,c),
(290,278,o),
(296,288,o),
(302,296,cs),
(308,303,o),
(314,313,o),
(321,325,c),
(327,328,o),
(336,330,o),
(348,332,cs),
(372,335,o),
(401,336,o),
(426,336,cs),
(453,336,l),
(477,336,l),
(477,313,o),
(465,290,o),
(453,265,c),
(429,189,o),
(409,94,o),
(405,1,cs),
(400,-92,o),
(412,-184,o),
(453,-255,c),
(470,-279,o),
(492,-284,o),
(509,-278,cs)
);
}
);
width = 623;
}
);
note = K;
unicode = 75;
},
{
glyphname = L;
layers = (
{
layerId = m01;
shapes = (
{
closed = 1;
nodes = (
(807,27,o),
(795,39,o),
(782,44,cs),
(774,47,ls),
(771,48,o),
(768,49,o),
(765,50,c),
(765,58,ls),
(765,60,o),
(764,63,o),
(763,66,cs),
(756,93,o),
(745,119,o),
(732,144,cs),
(719,169,o),
(707,195,o),
(698,222,cs),
(694,234,o),
(690,247,o),
(687,262,cs),
(684,276,o),
(680,290,o),
(677,304,cs),
(669,332,o),
(660,359,o),
(645,380,cs),
(634,397,o),
(609,404,o),
(593,387,cs),
(572,363,o),
(566,332,o),
(567,300,cs),
(568,268,o),
(576,235,o),
(583,207,cs),
(590,174,o),
(601,139,o),
(616,108,c),
(587,120,o),
(560,132,o),
(536,144,cs),
(511,156,o),
(487,168,o),
(463,179,cs),
(415,202,o),
(367,222,o),
(307,239,cs),
(290,244,o),
(239,252,o),
(183,255,c),
(194,278,o),
(203,304,o),
(208,331,cs),
(218,385,o),
(219,436,o),
(214,489,cs),
(209,542,o),
(204,598,o),
(192,654,cs),
(185,681,o),
(180,709,o),
(177,738,c),
(174,751,o),
(164,760,o),
(153,760,cs),
(141,760,o),
(131,753,o),
(131,738,cs),
(130,694,o),
(131,650,o),
(135,607,cs),
(138,564,o),
(141,520,o),
(142,477,cs),
(142,429,o),
(140,383,o),
(125,336,cs),
(114,300,o),
(91,276,o),
(66,252,c),
(34,248,o),
(6,239,o),
(-13,227,cs),
(-32,214,o),
(-40,195,o),
(-35,170,cs),
(-32,157,o),
(-22,150,o),
(-10,148,cs),
(2,146,o),
(15,150,o),
(23,158,c),
(26,158,ls),
(38,159,o),
(50,158,o),
(62,157,cs),
(107,154,ls),
(122,153,o),
(137,152,o),
(152,150,cs),
(239,138,o),
(310,108,o),
(389,73,cs),
(428,56,o),
(457,41,o),
(486,26,cs),
(514,10,o),
(543,-5,o),
(582,-22,cs),
(618,-38,o),
(656,-54,o),
(693,-59,cs),
(730,-64,o),
(766,-57,o),
(801,-28,c),
(813,-16,o),
(816,-1,o),
(812,13,cs)
);
},
{
closed = 1;
nodes = (
(29,179,l),
(30,178,o),
(30,177,o),
(30,177,c)
);
}
);
width = 807;
}
);
note = L;
unicode = 76;
},
{
glyphname = M;
lastChange = "2024-06-01 14:12:38 +0000";
layers = (
{
layerId = m01;
shapes = (
{
closed = 1;
nodes = (
(752,-85,o),
(785,-89,o),
(809,-65,cs),
(861,-12,o),
(865,42,o),
(845,92,cs),
(825,142,o),
(782,189,o),
(742,233,cs),
(703,274,o),
(676,329,o),
(657,389,cs),
(637,448,o),
(626,509,o),
(623,568,c),
(625,567,o),
(627,567,o),
(630,567,c),
(632,566,o),
(634,566,o),
(636,565,c),
(655,561,o),
(672,573,o),
(679,589,cs),
(686,604,o),
(684,623,o),
(664,632,cs),
(576,675,o),
(480,678,o),
(384,669,cs),
(324,664,o),
(271,640,o),
(215,619,cs),
(205,616,o),
(189,610,o),
(167,602,cs),
(145,594,o),
(122,588,o),
(99,583,cs),
(52,574,o),
(9,576,o),
(2,613,cs),
(-1,625,o),
(-12,630,o),
(-23,629,cs),
(-34,628,o),
(-43,619,o),
(-43,607,cs),
(-42,594,o),
(-39,583,o),
(-33,574,cs),
(-21,554,o),
(-1,541,o),
(21,531,cs),
(43,521,o),
(72,510,o),
(115,513,c),
(120,503,o),
(124,492,o),
(127,481,cs),
(130,469,o),
(132,459,o),
(135,451,cs),
(151,408,o),
(156,361,o),
(163,314,cs),
(171,265,o),
(179,212,o),
(168,161,cs),
(164,144,o),
(154,130,o),
(143,117,cs),
(132,104,o),
(122,90,o),
(118,73,cs),
(113,50,o),
(128,22,o),
(155,25,cs),
(212,30,o),
(239,75,o),
(250,127,cs),
(261,179,o),
(256,240,o),
(249,280,cs),
(238,341,o),
(227,404,o),
(202,461,cs),
(194,478,o),
(184,501,o),
(171,521,c),
(200,528,o),
(226,536,o),
(253,544,c),
(260,547,o),
(268,549,o),
(276,551,cs),
(298,557,l),
(301,542,o),
(306,528,o),
(312,514,cs),
(327,473,ls),
(342,422,o),
(351,369,o),
(360,318,cs),
(369,266,o),
(374,212,o),
(378,160,cs),
(382,107,o),
(385,54,o),
(394,2,cs),
(398,-21,o),
(415,-32,o),
(434,-33,cs),
(453,-34,o),
(473,-26,o),
(484,-9,cs),
(498,14,o),
(507,41,o),
(510,70,cs),
(516,128,o),
(509,189,o),
(495,249,cs),
(488,278,o),
(481,305,o),
(476,330,cs),
(467,371,o),
(457,417,o),
(442,459,cs),
(427,501,o),
(409,540,o),
(381,573,c),
(434,581,o),
(488,583,o),
(542,579,c),
(534,539,o),
(536,498,o),
(539,457,cs),
(542,396,o),
(549,337,o),
(569,278,cs),
(589,221,o),
(620,175,o),
(659,128,cs),
(666,120,o),
(674,111,o),
(683,102,cs),
(692,93,o),
(699,83,o),
(706,73,cs),
(719,52,o),
(726,30,o),
(713,9,cs),
(694,-20,o),
(706,-52,o),
(729,-68,cs)
);
}
);
width = 847;
}
);
note = M;
unicode = 77;
},
{
glyphname = N;
lastChange = "2024-06-01 14:12:38 +0000";
layers = (
{
layerId = m01;
shapes = (
{
closed = 1;
nodes = (
(302,-66,o),
(321,-61,o),
(334,-49,cs),
(347,-37,o),
(352,-19,o),
(340,-3,cs),
(313,30,o),
(284,52,o),
(249,68,c),
(253,81,o),
(256,96,o),
(257,113,cs),
(260,145,o),
(259,178,o),
(256,207,cs),
(254,222,o),
(253,234,o),
(252,245,cs),
(251,257,o),
(249,269,o),
(248,282,cs),
(247,294,o),
(245,306,o),
(243,317,c),
(252,308,o),
(262,299,o),
(272,290,cs),
(282,281,o),
(292,271,o),
(301,262,cs),
(350,215,o),
(399,170,o),
(442,118,cs),
(465,91,o),
(483,62,o),
(502,31,cs),
(507,22,o),
(513,14,o),
(518,5,cs),
(523,-4,o),
(528,-13,o),
(534,-20,cs),
(546,-36,o),
(562,-49,o),
(583,-54,cs),
(600,-59,o),
(618,-51,o),
(626,-36,cs),
(639,-16,o),
(641,7,o),
(637,31,cs),
(633,54,o),
(622,76,o),
(609,99,c),
(600,133,ls),
(597,144,o),
(594,156,o),
(591,167,cs),
(580,214,o),
(578,261,o),
(579,309,cs),
(579,373,o),
(590,435,o),
(599,499,c),
(658,496,o),
(716,506,o),
(760,525,cs),
(769,529,o),
(775,535,o),
(779,542,cs),
(786,556,o),
(784,572,o),
(776,588,cs),
(768,603,o),
(749,616,o),
(722,623,cs),
(695,630,o),
(667,632,o),
(639,630,cs),
(596,627,ls),
(568,625,o),
(538,627,o),
(507,632,c),
(496,635,o),
(485,639,o),
(472,644,c),
(467,645,o),
(464,647,o),
(461,650,cs),
(458,652,o),
(457,652,o),
(456,651,c),
(453,655,o),
(451,657,o),
(449,658,cs),
(426,674,o),
(395,660,o),
(388,633,cs),
(383,614,o),
(389,596,o),
(401,581,cs),
(412,566,o),
(428,553,o),
(441,544,cs),
(468,525,o),
(499,514,o),
(534,507,c),
(509,438,o),
(492,368,o),
(489,292,c),
(488,286,o),
(488,280,o),
(488,274,cs),
(488,254,l),
(467,277,o),
(446,296,o),
(423,315,cs),
(400,335,o),
(376,355,o),
(353,374,cs),
(330,393,o),
(307,413,o),
(285,434,cs),
(240,474,o),
(199,519,o),
(167,572,cs),
(160,584,o),
(146,588,o),
(134,588,cs),
(121,587,o),
(110,579,o),
(106,567,c),
(95,563,o),
(88,554,o),
(93,539,cs),
(130,446,o),
(154,345,o),
(158,245,cs),
(159,206,o),
(157,169,o),
(153,130,cs),
(152,125,o),
(152,119,o),
(151,114,cs),
(148,97,l),
(105,104,o),
(58,100,o),
(26,76,cs),
(15,68,o),
(12,55,o),
(13,44,cs),
(14,33,o),
(23,23,o),
(36,22,c),
(127,23,o),
(207,-13,o),
(286,-57,cs)
);
}
);
width = 783;
}
);
note = N;
unicode = 78;
},
{
glyphname = O;
lastChange = "2024-06-01 14:12:38 +0000";
layers = (
{
layerId = m01;
shapes = (
{
closed = 1;
nodes = (
(362,-17,o),
(495,-14,o),
(606,45,cs),
(657,72,o),
(695,115,o),
(716,165,cs),
(737,215,o),
(741,271,o),
(724,326,cs),
(691,426,o),
(606,504,o),
(507,533,cs),
(463,546,o),
(414,552,o),
(368,545,cs),
(322,537,o),
(280,516,o),
(252,475,cs),
(241,460,o),
(246,443,o),
(255,431,cs),
(264,418,o),
(281,409,o),
(297,416,cs),
(353,436,o),
(417,434,o),
(473,412,cs),
(529,390,o),
(575,348,o),
(598,292,cs),
(611,260,o),
(606,229,o),
(590,204,cs),
(574,179,o),
(548,160,o),
(519,148,cs),
(438,116,o),
(347,127,o),
(267,156,cs),
(211,176,o),
(168,222,o),
(145,277,cs),
(112,357,o),
(134,432,o),
(189,497,cs),
(236,554,o),
(311,592,o),
(390,602,cs),
(469,612,o),
(550,593,o),
(607,540,cs),
(623,525,o),
(642,531,o),
(654,543,cs),
(665,554,o),
(669,573,o),
(653,586,cs),
(576,651,o),
(470,677,o),
(369,668,cs),
(268,659,o),
(168,615,o),
(103,540,cs),
(27,452,o),
(4,345,o),
(41,234,cs),
(74,133,o),
(150,69,o),
(246,30,cs)
);
}
);
width = 766;
}
);
note = O;
unicode = 79;
},
{
glyphname = P;
lastChange = "2024-06-01 14:12:38 +0000";
layers = (
{
layerId = m01;
shapes = (
{
closed = 1;
nodes = (
(417,-65,o),
(445,-67,o),
(474,-54,cs),
(486,-49,o),
(491,-38,o),
(492,-26,cs),
(493,-14,o),
(490,-2,o),
(482,6,cs),
(469,19,o),
(455,29,o),
(439,34,cs),
(423,39,o),
(407,45,o),
(391,52,cs),
(361,64,l),
(382,105,o),
(382,159,o),
(377,202,cs),
(376,207,o),
(376,212,o),
(376,217,c),
(373,230,l),
(457,231,o),
(542,264,o),
(598,313,cs),
(642,352,o),
(675,409,o),
(685,468,cs),
(695,527,o),
(683,588,o),
(639,635,cs),
(594,683,o),
(531,699,o),
(467,699,cs),
(403,699,o),
(336,682,o),
(280,662,cs),
(249,651,o),
(220,637,o),
(189,621,c),
(158,654,o),
(119,682,o),
(74,669,cs),
(63,665,o),
(59,656,o),
(59,647,cs),
(59,638,o),
(64,629,o),
(72,626,c),
(89,614,o),
(103,598,o),
(116,581,c),
(113,580,o),
(111,578,o),
(109,577,cs),
(107,576,o),
(105,574,o),
(102,573,c),
(51,542,o),
(11,507,o),
(-12,451,cs),
(-17,438,o),
(0,426,o),
(11,433,cs),
(56,465,o),
(105,492,o),
(156,516,c),
(159,510,ls),
(186,463,o),
(207,413,o),
(226,362,c),
(227,357,o),
(229,353,o),
(230,349,cs),
(231,345,o),
(233,341,o),
(234,336,c),
(222,328,o),
(217,315,o),
(218,303,cs),
(218,290,o),
(225,276,o),
(237,268,c),
(240,267,o),
(242,265,o),
(245,263,cs),
(248,261,o),
(250,259,o),
(253,258,c),
(257,239,o),
(260,221,o),
(263,202,cs),
(266,184,o),
(266,166,o),
(263,148,cs),
(260,129,o),
(258,111,o),
(257,93,c),
(244,95,o),
(231,96,o),
(216,96,cs),
(201,96,o),
(186,95,o),
(173,92,cs),
(145,86,o),
(120,73,o),
(111,52,cs),
(103,35,o),
(119,18,o),
(136,26,cs),
(147,31,o),
(160,32,o),
(174,28,cs),
(188,24,o),
(201,21,o),
(212,19,cs),
(229,15,o),
(246,10,o),
(262,3,cs),
(294,-10,o),
(322,-24,o),
(349,-38,cs),
(362,-45,o),
(376,-51,o),
(390,-56,cs)
);
},
{
closed = 1;
nodes = (
(333,378,o),
(325,398,o),
(316,419,cs),
(296,466,o),
(273,514,o),
(242,557,c),
(263,566,o),
(286,575,o),
(309,583,cs),
(356,598,o),
(404,608,o),
(452,608,cs),
(476,608,o),
(499,605,o),
(522,599,cs),
(574,586,o),
(587,546,o),
(579,506,cs),
(571,465,o),
(544,421,o),
(513,400,cs),
(458,363,o),
(401,359,o),
(341,355,c)
);
}
);
width = 717;
}
);
note = P;
unicode = 80;
},
{
glyphname = Q;
lastChange = "2024-06-01 14:12:38 +0000";
layers = (
{
layerId = m01;
shapes = (
{
closed = 1;
nodes = (
(295,9,o),
(357,24,o),
(414,49,cs),
(470,74,o),
(506,105,o),
(545,140,c),
(555,129,o),
(565,119,o),
(575,109,cs),
(584,98,o),
(594,88,o),
(605,79,cs),
(658,30,o),
(723,8,o),
(786,12,cs),
(849,16,o),
(910,46,o),
(958,99,cs),
(967,109,o),
(971,120,o),
(971,131,cs),
(971,142,o),
(968,151,o),
(962,159,cs),
(949,175,o),
(926,183,o),
(903,171,cs),
(888,164,o),
(872,156,o),
(856,149,cs),
(840,141,o),
(824,135,o),
(808,130,cs),
(775,121,o),
(742,120,o),
(709,137,cs),
(672,156,o),
(642,182,o),
(611,209,c),
(638,242,o),
(661,278,o),
(676,319,cs),
(697,375,o),
(705,437,o),
(694,494,cs),
(683,551,o),
(655,605,o),
(606,641,cs),
(558,677,o),
(500,689,o),
(441,686,cs),
(381,683,o),
(321,667,o),
(270,647,cs),
(215,627,o),
(160,600,o),
(113,564,cs),
(65,528,o),
(26,482,o),
(6,425,cs),
(1,410,o),
(9,398,o),
(21,391,cs),
(33,383,o),
(49,383,o),
(60,395,cs),
(119,459,o),
(173,508,o),
(252,545,cs),
(289,564,o),
(337,580,o),
(383,588,cs),
(429,596,o),
(476,594,o),
(516,577,cs),
(560,557,o),
(581,519,o),
(589,476,cs),
(596,433,o),
(588,385,o),
(575,346,cs),
(566,318,o),
(549,292,o),
(528,268,c),
(487,291,o),
(437,310,o),
(390,313,cs),
(331,317,o),
(294,302,o),
(251,263,cs),
(244,256,o),
(247,250,o),
(251,246,cs),
(255,242,o),
(262,241,o),
(269,245,c),
(297,266,o),
(332,267,o),
(367,258,cs),
(402,249,o),
(436,230,o),
(461,214,cs),
(469,208,l),
(467,205,o),
(465,203,o),
(463,201,cs),
(457,195,ls),
(430,171,o),
(392,146,o),
(351,128,cs),
(310,110,o),
(266,98,o),
(227,103,cs),
(188,107,o),
(156,127,o),
(137,174,cs),
(116,226,o),
(126,276,o),
(151,321,cs),
(176,365,o),
(219,405,o),
(267,434,cs),
(314,462,o),
(365,483,o),
(409,488,cs),
(418,489,o),
(425,497,o),
(425,505,cs),
(425,513,o),
(420,520,o),
(409,520,cs),
(362,518,o),
(316,508,o),
(269,490,cs),
(176,454,o),
(102,391,o),
(65,306,cs),
(28,221,o),
(50,119,o),
(86,75,cs),
(122,31,o),
(174,10,o),
(235,10,cs)
);
}
);
width = 885;
}
);
note = Q;
unicode = 81;
},
{
glyphname = R;
lastChange = "2024-06-01 14:12:38 +0000";
layers = (
{
layerId = m01;
shapes = (
{
closed = 1;
nodes = (
(214,-130,o),
(227,-120,o),
(232,-105,cs),
(237,-92,o),
(241,-78,o),
(243,-63,cs),
(245,-48,o),
(249,-34,o),
(254,-20,cs),
(265,11,o),
(285,38,o),
(306,62,cs),
(349,113,o),
(403,157,o),
(459,196,cs),
(474,207,o),
(478,226,o),
(472,242,cs),
(466,258,o),
(451,269,o),
(431,261,cs),
(373,240,o),
(319,210,o),
(270,171,c),
(267,194,o),
(261,216,o),
(254,238,cs),
(246,259,o),
(238,281,o),
(231,303,c),
(291,338,o),
(352,368,o),
(416,397,cs),
(472,422,o),
(527,433,o),
(587,441,c),
(568,369,o),
(578,299,o),
(585,223,cs),
(586,213,o),
(587,202,o),
(589,191,cs),
(593,167,o),
(596,143,o),
(596,120,cs),
(595,97,o),
(586,79,o),
(571,63,cs),
(556,47,o),
(539,33,o),
(521,21,cs),
(512,14,o),
(503,8,o),
(495,2,cs),
(475,-14,o),
(475,-36,o),
(484,-54,cs),
(492,-72,o),
(512,-88,o),
(533,-89,cs),
(564,-92,o),
(592,-86,o),
(617,-73,cs),
(667,-47,o),
(702,-2,o),
(719,55,cs),
(736,111,o),
(732,171,o),
(717,233,cs),
(710,264,o),
(704,295,o),
(700,326,cs),
(697,348,o),
(696,371,o),
(697,395,cs),
(698,419,o),
(695,442,o),
(690,465,c),
(701,488,o),
(690,518,o),
(658,519,cs),
(577,522,o),
(501,510,o),
(428,481,c),
(463,529,o),
(492,581,o),
(499,641,cs),
(501,659,o),
(499,676,o),
(493,692,cs),
(481,723,o),
(451,737,o),
(428,738,cs),
(405,738,o),
(382,733,o),
(359,726,cs),
(348,722,o),
(337,719,o),
(328,716,cs),
(281,701,o),
(234,689,o),
(185,684,cs),
(172,683,o),
(141,681,o),
(111,685,cs),
(81,688,o),
(52,697,o),
(45,714,cs),
(40,729,o),
(14,738,o),
(6,719,cs),
(-2,701,o),
(-4,685,o),
(0,670,cs),
(7,641,o),
(30,619,o),
(62,604,cs),
(93,588,o),
(127,578,o),
(156,577,c),
(129,505,o),
(130,426,o),
(135,350,cs),
(136,315,o),
(141,274,o),
(152,235,cs),
(163,195,o),
(180,160,o),
(211,137,cs),
(214,135,o),
(218,133,o),
(225,130,c),
(209,114,ls),
(182,83,o),
(153,43,o),
(140,0,cs),
(127,-44,o),
(129,-87,o),
(162,-123,cs),
(174,-136,o),
(189,-139,o),
(202,-134,cs)
);
},
{
closed = 1;
nodes = (
(208,428,o),
(206,458,o),
(207,487,cs),
(207,516,o),
(205,546,o),
(202,576,c),
(262,579,o),
(321,596,o),
(374,612,c),
(377,612,l),
(372,597,o),
(364,582,o),
(354,569,cs),
(333,541,o),
(317,520,o),
(296,499,cs),
(285,488,o),
(275,478,o),
(265,467,cs),
(244,446,o),
(223,422,o),
(211,398,c)
);
}
);
width = 767;
}
);
note = R;
unicode = 82;
},
{
glyphname = S;
lastChange = "2024-06-01 14:12:38 +0000";
layers = (
{
layerId = m01;
shapes = (
{
closed = 1;
nodes = (
(555,-5,o),
(662,14,o),
(743,67,cs),
(771,86,o),
(797,120,o),
(808,155,cs),
(819,190,o),
(812,226,o),
(773,249,cs),
(756,259,o),
(737,267,o),
(716,272,cs),
(675,282,o),
(630,285,o),
(587,288,cs),
(565,289,o),
(544,291,o),
(524,293,cs),
(415,304,o),
(302,335,o),
(207,394,cs),
(166,419,o),
(122,458,o),
(102,493,cs),
(83,526,o),
(90,562,o),
(114,589,cs),
(130,605,o),
(151,613,o),
(175,617,cs),
(198,621,o),
(222,619,o),
(243,618,cs),
(284,615,o),
(330,609,o),
(372,595,cs),
(414,581,o),
(452,560,o),
(484,532,cs),
(488,528,l),
(472,497,o),
(460,457,o),
(463,422,cs),
(466,386,o),
(483,355,o),
(524,343,cs),
(536,340,o),
(546,341,o),
(555,347,cs),
(572,359,o),
(582,384,o),
(582,410,cs),
(581,423,o),
(583,436,o),
(586,449,cs),
(594,478,o),
(608,503,o),
(623,530,cs),
(638,557,o),
(654,587,o),
(665,619,cs),
(676,650,o),
(683,682,o),
(680,713,cs),
(679,726,o),
(671,735,o),
(661,738,cs),
(651,741,o),
(640,738,o),
(632,727,cs),
(615,699,o),
(596,673,o),
(576,648,cs),
(555,623,o),
(535,598,o),
(516,571,c),
(461,618,o),
(404,643,o),
(329,662,cs),
(289,673,o),
(245,681,o),
(201,681,cs),
(157,681,o),
(114,672,o),
(78,651,cs),
(42,630,o),
(21,595,o),
(13,558,cs),
(5,521,o),
(10,480,o),
(26,445,cs),
(49,396,o),
(92,357,o),
(135,325,cs),
(219,261,o),
(317,225,o),
(418,202,cs),
(439,197,o),
(461,193,o),
(483,190,cs),
(527,184,o),
(570,178,o),
(614,173,cs),
(635,170,o),
(657,167,o),
(678,162,c),
(643,139,o),
(603,130,o),
(563,122,cs),
(503,111,o),
(437,111,o),
(370,118,cs),
(303,125,o),
(238,136,o),
(181,151,cs),
(168,154,o),
(156,156,o),
(145,157,cs),
(134,157,o),
(122,158,o),
(109,159,cs),
(89,160,o),
(77,148,o),
(71,133,cs),
(65,118,o),
(66,99,o),
(78,86,cs),
(121,42,o),
(187,16,o),
(257,2,cs),
(327,-12,o),
(400,-15,o),
(459,-12,cs)
);
}
);
width = 823;
}
);
note = S;
unicode = 83;
},
{
glyphname = T;
lastChange = "2024-06-01 14:12:38 +0000";
layers = (
{
layerId = m01;
shapes = (
{
closed = 1;
nodes = (
(720,-50,o),
(737,-47,o),
(750,-39,cs),
(762,-31,o),
(770,-17,o),
(763,2,cs),
(754,29,o),
(741,53,o),
(727,78,cs),
(713,102,o),
(698,127,o),
(689,154,cs),
(670,210,o),
(668,263,o),
(671,322,cs),
(672,338,o),
(660,349,o),
(647,353,cs),
(634,357,o),
(618,353,o),
(610,338,cs),
(581,286,o),
(571,214,o),
(582,143,c),
(550,151,o),
(518,157,o),
(485,160,cs),
(420,167,o),
(358,179,o),
(309,200,c),
(327,210,o),
(344,220,o),
(360,230,cs),
(436,279,o),
(459,354,o),
(427,438,cs),
(418,461,o),
(401,490,o),
(378,517,c),
(406,524,o),
(434,530,o),
(461,536,cs),
(515,547,o),
(580,562,o),
(657,539,cs),
(674,534,o),
(691,526,o),
(707,515,cs),
(723,504,o),
(740,495,o),
(757,488,cs),
(769,483,o),
(784,488,o),
(793,497,cs),
(802,506,o),
(807,521,o),
(802,533,cs),
(788,568,o),
(768,594,o),
(742,613,cs),
(689,649,o),
(624,662,o),
(555,658,cs),
(486,654,o),
(418,641,o),
(343,619,cs),
(306,608,o),
(268,598,o),
(230,590,cs),
(194,581,o),
(156,575,o),
(119,582,cs),
(107,585,o),
(89,592,o),
(73,602,cs),
(56,612,o),
(42,624,o),
(39,639,cs),
(38,646,o),
(34,649,o),
(28,649,cs),
(21,649,o),
(16,647,o),
(13,642,cs),
(-2,622,o),
(1,597,o),
(13,574,cs),
(24,551,o),
(43,531,o),
(60,520,cs),
(127,481,o),
(200,483,o),
(272,494,c),
(283,497,o),
(290,498,o),
(301,499,c),
(320,480,o),
(337,454,o),
(346,438,cs),
(359,413,o),
(362,390,o),
(354,370,cs),
(338,329,o),
(288,310,o),
(246,298,cs),
(225,292,o),
(205,282,o),
(188,267,cs),
(172,254,o),
(158,235,o),
(151,215,cs),
(143,194,o),
(144,172,o),
(157,152,cs),
(180,119,o),
(215,96,o),
(253,79,cs),
(291,62,o),
(333,51,o),
(369,42,cs),
(452,23,o),
(541,14,o),
(626,25,c),
(646,-4,o),
(672,-28,o),
(705,-43,cs)
);
}
);
width = 809;
}
);
note = T;
unicode = 84;
},
{
glyphname = U;
lastChange = "2024-06-01 14:12:38 +0000";
layers = (
{
layerId = m01;
shapes = (
{
closed = 1;
nodes = (
(779,-61,o),
(792,-50,o),
(796,-34,cs),
(805,-3,o),
(806,28,o),
(797,59,cs),
(779,120,o),
(739,178,o),
(694,230,cs),
(671,255,o),
(651,279,o),
(634,301,cs),
(595,350,o),
(553,407,o),
(530,467,cs),
(518,498,o),
(509,536,o),
(503,574,cs),
(497,612,o),
(495,650,o),
(502,682,cs),
(503,691,o),
(493,699,o),
(486,691,cs),
(438,642,o),
(424,578,o),
(429,512,cs),
(433,446,o),
(456,379,o),
(484,324,cs),
(504,285,o),
(527,251,o),
(554,216,c),
(543,216,o),
(535,215,o),
(524,210,cs),
(483,191,o),
(421,183,o),
(362,191,cs),
(303,199,o),
(248,222,o),
(223,266,cs),
(216,278,o),
(212,292,o),
(213,309,cs),
(214,341,o),
(222,376,o),
(229,409,cs),
(232,426,o),
(234,441,o),
(233,455,cs),
(230,488,o),
(217,520,o),
(194,547,c),
(230,558,o),
(265,573,o),
(290,594,cs),
(314,614,o),
(330,639,o),
(330,671,cs),
(330,680,o),
(327,689,o),
(320,696,cs),
(307,711,o),
(286,706,o),
(267,699,cs),
(247,691,o),
(229,681,o),
(212,670,cs),
(203,665,o),
(194,660,o),
(185,656,cs),
(138,635,o),
(86,613,o),
(33,608,cs),
(6,605,o),
(-7,586,o),
(-7,566,cs),
(-8,546,o),
(5,525,o),
(33,524,cs),
(56,523,o),
(88,524,o),
(123,531,c),
(130,518,o),
(137,505,o),
(142,493,cs),
(152,468,o),
(142,428,o),
(126,390,cs),
(118,371,o),
(112,351,o),
(108,331,cs),
(93,256,o),
(118,189,o),
(171,138,cs),
(198,113,o),
(232,96,o),
(269,84,cs),
(306,72,o),
(345,67,o),
(381,64,cs),
(461,57,o),
(532,65,o),
(593,121,cs),
(601,129,o),
(606,137,o),
(608,144,c),
(609,142,o),
(611,140,o),
(613,139,c),
(617,133,ls),
(628,118,o),
(637,104,o),
(646,90,cs),
(662,61,o),
(679,28,o),
(692,-6,cs),
(698,-23,o),
(708,-39,o),
(721,-54,cs),
(733,-66,o),
(749,-69,o),
(764,-65,cs)
);
}
);
width = 811;
}
);
note = U;
unicode = 85;
},
{
glyphname = V;
lastChange = "2024-06-01 14:12:38 +0000";
layers = (
{
layerId = m01;
shapes = (
{
closed = 1;
nodes = (
(371,-62,o),
(402,-46,o),
(415,-24,cs),
(428,-2,o),
(435,26,o),
(437,54,cs),
(440,91,ls),
(447,155,o),
(453,216,o),
(470,277,cs),
(486,335,o),
(512,390,o),
(547,442,cs),
(565,468,o),
(586,492,o),
(611,514,cs),
(635,536,o),
(657,559,o),
(678,583,cs),
(682,587,o),
(685,592,o),
(686,597,c),
(721,586,o),
(752,576,o),
(780,561,cs),
(797,552,o),
(818,563,o),
(818,583,cs),
(818,608,o),
(805,628,o),
(788,642,cs),
(771,656,o),
(747,665,o),
(727,673,cs),
(710,680,o),
(691,686,o),
(671,690,cs),
(651,693,o),
(632,698,o),
(613,703,cs),
(575,713,o),
(539,729,o),
(519,765,cs),
(508,784,o),
(491,785,o),
(478,777,cs),
(465,769,o),
(456,752,o),
(464,733,cs),
(487,682,o),
(528,654,o),
(577,634,c),
(526,609,o),
(483,573,o),
(447,528,cs),
(374,437,o),
(339,331,o),
(322,222,c),
(313,236,ls),
(310,240,o),
(306,244,o),
(303,248,cs),
(283,273,o),
(263,298,o),
(244,321,cs),
(224,344,o),
(206,369,o),
(191,398,cs),
(186,407,o),
(181,417,o),
(178,427,cs),
(175,437,o),
(171,447,o),
(168,457,c),
(165,462,o),
(163,478,o),
(163,493,c),
(198,497,o),
(229,507,o),
(257,524,cs),
(273,533,o),
(276,550,o),
(270,563,cs),
(264,575,o),
(250,586,o),
(233,582,cs),
(215,578,o),
(197,574,o),
(178,569,cs),
(159,564,o),
(141,561,o),
(122,558,cs),
(84,553,o),
(46,553,o),
(10,568,cs),
(-3,573,o),
(-14,566,o),
(-18,555,cs),
(-23,543,o),
(-21,529,o),
(-9,522,cs),
(22,503,o),
(60,494,o),
(100,491,c),
(97,481,o),
(95,472,o),
(94,463,cs),
(87,406,o),
(106,352,o),
(133,301,cs),
(149,269,o),
(171,240,o),
(194,212,cs),
(228,170,ls),
(250,142,o),
(270,108,o),
(289,70,cs),
(317,13,l),
(318,9,o),
(318,5,o),
(319,2,c),
(319,-2,o),
(319,-6,o),
(320,-9,cs),
(320,-10,o),
(320,-12,o),
(321,-13,c),
(321,-17,l),
(322,-18,o),
(322,-20,o),
(322,-22,c),
(323,-22,l),
(328,-33,o),
(336,-42,o),
(348,-49,cs)
);
}
);
width = 827;
}
);
note = V;
unicode = 86;
},
{
glyphname = W;
lastChange = "2024-06-01 14:12:38 +0000";
layers = (
{
layerId = m01;
shapes = (
{
closed = 1;
nodes = (
(598,-57,o),
(638,-48,o),
(649,-16,c),
(668,-9,o),
(687,0,o),
(706,11,cs),
(725,22,o),
(743,31,o),
(761,40,cs),
(793,56,o),
(813,82,o),
(821,111,cs),
(828,140,o),
(821,173,o),
(800,202,cs),
(777,233,o),
(750,260,o),
(723,288,cs),
(695,315,o),
(667,342,o),
(644,374,cs),
(625,399,o),
(603,432,o),
(584,467,cs),
(565,502,o),
(550,539,o),
(545,574,c),
(577,583,o),
(607,594,o),
(635,609,cs),
(647,616,o),
(652,629,o),
(650,642,cs),
(648,654,o),
(639,666,o),
(626,669,cs),
(570,682,o),
(509,673,o),
(456,654,cs),
(441,649,o),
(418,639,o),
(402,627,cs),
(386,614,o),
(376,595,o),
(385,574,c),
(386,573,l),
(386,572,o),
(386,572,o),
(387,571,c),
(392,560,o),
(406,553,o),
(417,553,cs),
(442,554,o),
(466,557,o),
(491,562,c),
(488,535,o),
(489,508,o),
(493,481,cs),
(501,426,o),
(519,374,o),
(544,327,cs),
(569,279,o),
(606,231,o),
(657,178,cs),
(675,160,ls),
(681,154,o),
(687,148,o),
(692,142,c),
(681,136,o),
(669,130,o),
(657,125,cs),
(644,120,o),
(632,114,o),
(620,109,cs),
(596,98,o),
(572,85,o),
(556,65,c),
(525,77,l),
(514,80,o),
(504,85,o),
(493,91,cs),
(471,103,o),
(455,120,o),
(444,141,cs),
(422,184,o),
(417,236,o),
(417,285,cs),
(417,309,o),
(414,333,o),
(409,358,cs),
(400,405,o),
(364,438,o),
(333,471,cs),
(330,474,o),
(327,475,o),
(324,475,cs),
(320,475,o),
(317,474,o),
(315,472,cs),
(310,468,o),
(307,461,o),
(311,454,cs),
(320,441,o),
(328,427,o),
(336,412,cs),
(352,383,o),
(357,352,o),
(350,321,cs),
(346,305,o),
(343,290,o),
(340,275,cs),
(329,215,o),
(323,166,o),
(343,107,cs),
(346,100,ls),
(347,98,o),
(347,96,o),
(348,94,c),
(313,109,ls),
(300,114,o),
(288,119,o),
(277,124,cs),
(229,148,o),
(217,177,o),
(220,230,cs),
(225,303,o),
(227,375,o),
(194,438,c),
(216,454,o),
(235,472,o),
(252,493,cs),
(259,502,o),
(259,517,o),
(255,526,cs),
(250,535,o),
(240,541,o),
(227,537,cs),
(211,533,o),
(196,527,o),
(182,519,cs),
(154,503,o),
(137,491,o),
(117,476,cs),
(107,468,o),
(96,461,o),
(85,454,cs),
(62,441,o),
(40,431,o),
(24,438,cs),
(11,443,o),
(0,436,o),
(-4,425,cs),
(-8,413,o),
(-7,399,o),
(5,392,cs),
(22,380,o),
(46,379,o),
(68,383,cs),
(90,387,o),
(113,396,o),
(130,403,cs),
(137,406,o),
(144,409,o),
(151,413,c),
(160,364,o),
(146,314,o),
(132,266,cs),
(125,241,o),
(120,217,o),
(117,192,cs),
(111,143,o),
(130,95,o),
(172,55,cs),
(214,14,o),
(267,-12,o),
(320,-12,cs),
(346,-12,o),
(368,-2,o),
(387,19,cs),
(390,22,o),
(391,24,o),
(392,26,c),
(407,10,o),
(423,-4,o),
(441,-16,cs),
(476,-40,o),
(516,-53,o),
(557,-55,cs)
);
}
);
width = 833;
}
);
note = W;
unicode = 87;
},
{
glyphname = X;
lastChange = "2024-06-01 14:12:38 +0000";
layers = (
{
layerId = m01;
shapes = (
{
closed = 1;
nodes = (
(702,-133,o),
(716,-126,o),
(728,-114,cs),
(739,-102,o),
(746,-80,o),
(746,-55,cs),
(745,-30,o),
(748,-2,o),
(755,26,cs),
(762,54,o),
(770,80,o),
(779,108,cs),
(784,122,o),
(788,136,o),
(791,151,cs),
(797,180,o),
(800,209,o),
(793,237,cs),
(788,260,o),
(759,271,o),
(740,259,cs),
(728,252,o),
(717,241,o),
(708,228,cs),
(688,201,o),
(672,168,o),
(660,136,cs),
(654,119,o),
(648,104,o),
(643,91,c),
(607,121,o),
(571,150,o),
(534,179,cs),
(497,208,o),
(460,237,o),
(423,267,c),
(439,282,o),
(454,298,o),
(468,315,cs),
(525,386,o),
(552,466,o),
(536,550,c),
(548,553,o),
(560,555,o),
(571,558,cs),
(582,560,o),
(593,563,o),
(604,566,cs),
(624,571,o),
(632,588,o),
(629,604,cs),
(626,620,o),
(614,635,o),
(595,636,cs),
(563,639,o),
(516,641,o),
(474,633,cs),
(432,624,o),
(396,605,o),
(385,565,cs),
(382,552,o),
(391,545,o),
(402,542,c),
(430,538,o),
(460,539,o),
(491,543,c),
(490,504,o),
(473,467,o),
(450,435,cs),
(427,402,o),
(398,371,o),
(370,347,cs),
(349,329,l),
(282,388,o),
(215,458,o),
(178,541,c),
(242,562,o),
(302,601,o),
(323,630,cs),
(327,635,o),
(329,641,o),
(329,648,cs),
(329,654,o),
(328,660,o),
(326,665,cs),
(321,676,o),
(311,685,o),
(299,689,cs),
(276,696,o),
(254,698,o),
(233,694,cs),
(189,685,o),
(147,666,o),
(104,647,cs),
(83,637,o),
(61,631,o),
(39,628,cs),
(11,624,o),
(7,591,o),
(16,570,cs),
(35,527,o),
(79,520,o),
(131,529,c),
(136,512,o),
(142,495,o),
(149,477,cs),
(176,409,o),
(214,352,o),
(261,296,cs),
(266,289,o),
(270,285,o),
(277,278,c),
(240,254,o),
(206,229,o),
(175,197,c),
(136,225,o),
(90,243,o),
(41,247,cs),
(13,248,o),
(0,228,o),
(0,207,cs),
(0,186,o),
(14,162,o),
(41,161,cs),
(57,160,o),
(75,150,o),
(92,137,cs),
(108,124,o),
(123,109,o),
(134,98,cs),
(148,83,o),
(159,65,o),
(167,45,cs),
(175,25,o),
(185,7,o),
(198,-10,cs),
(210,-26,o),
(230,-32,o),
(247,-28,cs),
(264,-25,o),
(279,-12,o),
(278,12,cs),
(276,49,o),
(266,83,o),
(248,114,c),
(264,127,o),
(280,141,o),
(295,156,cs),
(310,170,o),
(326,184,o),
(342,197,c),
(344,198,o),
(346,200,o),
(349,203,c),
(430,126,o),
(522,58,o),
(617,1,c),
(610,-47,o),
(620,-94,o),
(664,-125,cs),
(671,-130,o),
(678,-132,o),
(686,-132,cs)
);
}
);
width = 809;
}
);
note = X;
unicode = 88;
},
{
glyphname = Y;
lastChange = "2024-06-01 14:12:38 +0000";
layers = (
{
layerId = m01;
shapes = (
{
closed = 1;
nodes = (
(347,-53,o),
(451,-5,o),
(544,47,cs),
(616,89,ls),
(639,103,o),
(664,116,o),
(689,127,cs),
(726,146,o),
(767,165,o),
(810,176,c),
(821,172,o),
(832,170,o),
(844,170,cs),
(855,171,o),
(864,176,o),
(871,183,c),
(874,183,ls),
(890,182,o),
(898,192,o),
(899,204,cs),
(899,216,o),
(892,229,o),
(879,233,c),
(874,250,o),
(865,265,o),
(854,278,cs),
(830,304,o),
(795,334,o),
(755,370,cs),
(734,388,o),
(714,407,o),
(695,426,cs),
(655,466,o),
(631,511,o),
(604,560,cs),
(597,572,o),
(592,584,o),
(587,596,cs),
(582,608,o),
(576,620,o),
(570,632,cs),
(566,640,o),
(560,652,o),
(556,664,cs),
(551,676,o),
(548,689,o),
(549,697,cs),
(550,705,o),
(545,713,o),
(538,717,cs),
(531,720,o),
(523,719,o),
(518,710,cs),
(498,671,o),
(496,626,o),
(504,581,cs),
(512,536,o),
(529,490,o),
(548,450,c),
(545,433,o),
(542,416,o),
(534,402,cs),
(526,388,o),
(515,377,o),
(495,376,cs),
(454,372,o),
(412,378,o),
(372,389,c),
(381,418,ls),
(384,428,o),
(387,438,o),
(389,448,cs),
(397,491,o),
(382,533,o),
(355,568,c),
(396,607,o),
(424,654,o),
(413,705,cs),
(410,720,o),
(392,722,o),
(383,713,cs),
(343,674,ls),
(315,649,o),
(292,628,o),
(270,617,cs),
(237,599,ls),
(215,587,o),
(193,575,o),
(177,555,cs),
(165,540,o),
(165,524,o),
(173,512,cs),
(180,499,o),
(194,491,o),
(213,494,cs),
(244,499,o),
(278,514,o),
(310,534,c),
(330,507,o),
(312,478,o),
(295,446,cs),
(280,418,o),
(268,390,o),
(265,358,cs),
(264,329,o),
(283,310,o),
(308,296,cs),
(333,282,o),
(365,274,o),
(386,269,cs),
(419,262,o),
(453,258,o),
(488,258,cs),
(559,257,o),
(608,289,o),
(632,328,c),
(643,317,o),
(653,306,o),
(664,296,cs),
(675,286,o),
(685,276,o),
(696,265,cs),
(729,232,l),
(698,227,o),
(667,220,o),
(635,209,cs),
(592,194,o),
(551,177,o),
(512,156,cs),
(472,135,o),
(431,116,o),
(389,101,cs),
(313,74,o),
(234,59,o),
(157,82,cs),
(137,89,o),
(127,98,o),
(126,111,cs),
(124,136,o),
(142,167,o),
(165,196,cs),
(176,211,o),
(184,223,o),
(187,234,cs),
(192,250,o),
(187,265,o),
(176,275,cs),
(165,285,o),
(150,289,o),
(135,286,cs),
(88,275,o),
(49,246,o),
(23,207,cs),
(-3,168,o),
(-14,120,o),
(-1,73,cs),
(14,22,o),
(51,-11,o),
(96,-31,cs),
(140,-52,o),
(194,-60,o),
(239,-57,cs)
);
}
);
width = 869;
}
);
note = Y;
unicode = 89;
},
{
glyphname = Z;
lastChange = "2024-06-01 14:12:38 +0000";
layers = (
{
layerId = m01;
shapes = (
{
closed = 1;
nodes = (
(640,-66,o),
(680,-54,o),
(714,-33,cs),
(748,-13,o),
(776,19,o),
(793,54,cs),
(809,87,o),
(819,131,o),
(818,172,cs),
(817,212,o),
(803,251,o),
(771,276,cs),
(762,283,o),
(750,286,o),
(736,284,cs),
(707,279,o),
(689,257,o),
(681,230,cs),
(673,203,o),
(668,174,o),
(663,146,cs),
(660,131,o),
(655,118,o),
(647,105,cs),
(638,90,o),
(606,86,o),
(591,89,cs),
(574,92,o),
(558,99,o),
(543,110,cs),
(498,140,ls),
(445,173,o),
(384,200,o),
(323,205,c),
(338,214,o),
(352,224,o),
(367,233,cs),
(381,242,o),
(395,251,o),
(408,262,cs),
(492,326,o),
(534,413,o),
(557,510,c),
(558,509,o),
(560,509,o),
(561,509,cs),
(562,509,o),
(564,509,o),
(565,508,c),
(585,503,o),
(601,510,o),
(610,523,cs),
(618,536,o),
(621,554,o),
(614,570,cs),
(590,626,o),
(542,650,o),
(487,658,cs),
(432,666,o),
(371,657,o),
(323,649,cs),
(253,638,ls),
(228,634,o),
(202,632,o),
(177,632,cs),
(126,632,o),
(76,641,o),
(40,673,cs),
(33,680,o),
(23,680,o),
(15,677,c),
(8,680,ls),
(-12,688,o),
(-28,675,o),
(-35,659,cs),
(-42,642,o),
(-40,621,o),
(-21,610,cs),
(67,559,o),
(125,483,o),
(136,380,cs),
(137,361,o),
(149,350,o),
(162,347,cs),
(175,343,o),
(191,347,o),
(202,362,cs),
(221,387,o),
(224,417,o),
(220,447,cs),
(215,477,o),
(202,506,o),
(189,531,c),
(196,530,o),
(202,530,o),
(208,530,cs),
(214,529,o),
(220,529,o),
(227,528,cs),
(256,527,o),
(284,529,o),
(313,534,cs),
(341,538,o),
(369,541,o),
(398,543,cs),
(435,546,o),
(466,540,o),
(497,529,c),
(480,490,o),
(461,451,o),
(436,415,cs),
(404,368,o),
(355,342,o),
(306,317,cs),
(261,294,o),
(211,268,o),
(171,233,cs),
(131,197,o),
(103,154,o),
(100,97,cs),
(99,73,o),
(115,57,o),
(135,52,cs),
(154,47,o),
(177,53,o),
(189,73,c),
(190,76,o),
(192,78,o),
(194,80,cs),
(198,86,l),
(205,85,o),
(211,84,o),
(218,85,cs),
(251,92,o),
(281,92,o),
(308,86,cs),
(361,73,o),
(409,38,o),
(441,14,cs),
(456,2,o),
(472,-9,o),
(489,-19,cs),
(521,-39,o),
(556,-56,o),
(600,-61,cs)
);
}
);
width = 829;
}
);
note = Z;
unicode = 90;
},
{
glyphname = a;
lastChange = "2024-06-01 14:12:38 +0000";
layers = (
{
layerId = m01;
shapes = (
{
closed = 1;
nodes = (
(799,-18,o),
(811,21,o),
(810,62,cs),
(809,102,o),
(794,144,o),
(779,179,cs),
(748,250,o),
(692,305,o),
(635,356,cs),
(626,364,o),
(616,372,o),
(607,379,c),
(640,380,o),
(676,378,o),
(710,377,cs),
(744,376,o),
(778,377,o),
(811,384,cs),
(827,388,o),
(839,402,o),
(841,418,cs),
(843,434,o),
(837,451,o),
(821,458,cs),
(774,479,o),
(720,486,o),
(664,486,cs),
(608,485,o),
(551,475,o),
(496,462,c),
(487,469,o),
(479,474,o),
(471,479,cs),
(435,503,o),
(392,540,o),
(371,584,c),
(381,587,l),
(384,587,o),
(387,588,o),
(390,589,cs),
(422,598,o),
(454,604,o),
(487,608,cs),
(520,612,o),
(552,617,o),
(585,623,cs),
(606,627,o),
(614,644,o),
(614,661,cs),
(613,678,o),
(602,694,o),
(585,701,cs),
(559,710,o),
(532,715,o),
(504,715,cs),
(476,715,o),
(448,712,o),
(421,707,cs),
(365,695,o),
(310,674,o),
(261,655,cs),
(228,642,o),
(192,629,o),
(156,621,cs),
(119,613,o),
(82,610,o),
(46,618,cs),
(35,621,o),
(24,610,o),
(31,599,cs),
(62,554,o),
(114,541,o),
(166,540,c),
(161,513,o),
(155,486,o),
(148,461,cs),
(134,409,o),
(109,359,o),
(80,316,cs),
(65,294,o),
(52,271,o),
(41,248,cs),
(14,196,o),
(7,131,o),
(36,78,cs),
(52,49,o),
(74,23,o),
(101,8,cs),
(128,-8,o),
(158,-13,o),
(193,-4,cs),
(202,-2,o),
(209,2,o),
(215,9,cs),
(226,21,o),
(230,37,o),
(227,54,cs),
(223,70,o),
(206,84,o),
(189,98,cs),
(180,105,o),
(173,112,o),
(166,120,cs),
(152,135,o),
(141,153,o),
(141,178,cs),
(141,186,o),
(142,195,o),
(145,204,cs),
(149,222,o),
(158,240,o),
(167,257,cs),
(178,281,l),
(179,282,o),
(179,283,o),
(179,284,cs),
(179,285,o),
(179,286,o),
(180,287,c),
(251,312,o),
(322,332,o),
(394,351,cs),
(450,363,l),
(457,357,o),
(463,352,o),
(469,347,cs),
(485,331,ls),
(512,306,o),
(538,281,o),
(563,254,cs),
(612,200,o),
(654,141,o),
(670,77,cs),
(673,60,o),
(675,43,o),
(676,26,cs),
(676,9,o),
(681,-8,o),
(690,-23,cs),
(705,-47,o),
(738,-59,o),
(762,-42,cs)
);
},
{
closed = 1;
nodes = (
(219,408,o),
(223,474,o),
(192,541,c),
(197,542,o),
(203,542,o),
(208,543,cs),
(213,543,o),
(218,544,o),
(223,545,cs),
(260,550,o),
(295,561,o),
(331,572,c),
(324,547,o),
(328,522,o),
(337,498,cs),
(346,474,o),
(363,451,o),
(382,430,c),
(317,409,o),
(254,381,o),
(199,340,c)
);
}
);
width = 860;
}
);
note = a;
unicode = 97;
},
{
glyphname = b;
lastChange = "2024-06-01 14:12:38 +0000";
layers = (
{
layerId = m01;
shapes = (
{
closed = 1;
nodes = (
(453,-8,o),
(512,19,o),
(558,60,cs),
(604,100,o),
(636,153,o),
(647,216,cs),
(660,293,o),
(637,358,o),
(593,407,cs),
(549,456,o),
(484,490,o),
(413,506,c),
(425,527,o),
(436,557,o),
(444,586,cs),
(451,614,o),
(456,643,o),
(457,664,cs),
(458,676,o),
(449,682,o),
(440,682,c),
(439,683,o),
(437,684,o),
(435,684,c),
(412,695,o),
(383,697,o),
(352,697,cs),
(321,696,o),
(290,690,o),
(266,686,cs),
(193,671,o),
(124,658,o),
(49,670,cs),
(40,671,o),
(32,665,o),
(29,658,cs),
(25,651,o),
(26,643,o),
(35,639,cs),
(44,636,l),
(85,588,o),
(118,531,o),
(137,471,c),
(131,466,o),
(125,462,o),
(119,458,cs),
(113,453,o),
(107,449,o),
(102,445,cs),
(97,442,o),
(93,437,o),
(92,432,cs),
(89,417,o),
(103,405,o),
(116,408,cs),
(117,408,ls),
(128,409,o),
(139,411,o),
(148,414,c),
(149,413,o),
(150,411,o),
(150,408,cs),
(155,368,o),
(150,331,o),
(145,295,cs),
(140,259,o),
(134,222,o),
(134,185,cs),
(134,180,o),
(136,177,o),
(137,174,c),
(135,176,l),
(134,176,o),
(132,176,o),
(131,177,cs),
(103,198,o),
(72,194,o),
(53,176,cs),
(34,158,o),
(28,127,o),
(52,99,cs),
(93,52,o),
(132,19,o),
(191,-5,cs),
(254,-30,o),
(328,-28,o),
(392,-17,cs)
);
},
{
closed = 1;
nodes = (
(285,93,o),
(219,117,o),
(159,158,c),
(167,157,o),
(174,160,o),
(181,165,cs),
(203,181,o),
(218,200,o),
(227,221,cs),
(244,263,o),
(246,309,o),
(238,354,cs),
(234,377,o),
(230,398,o),
(227,417,c),
(226,420,o),
(226,422,o),
(226,424,c),
(225,425,o),
(225,427,o),
(224,430,c),
(225,431,o),
(227,431,o),
(230,431,cs),
(282,438,o),
(335,430,o),
(387,419,cs),
(434,408,o),
(475,387,o),
(503,355,cs),
(531,323,o),
(544,280,o),
(535,231,cs),
(526,192,o),
(500,162,o),
(468,141,cs),
(436,120,o),
(397,108,o),
(361,104,cs)
);
},
{
closed = 1;
nodes = (
(180,541,o),
(152,578,o),
(116,611,c),
(152,602,o),
(187,599,o),
(226,599,cs),
(243,600,o),
(263,600,o),
(284,601,cs),
(305,601,o),
(326,603,o),
(347,606,c),
(334,577,o),
(329,547,o),
(326,516,c),
(282,517,o),
(239,512,o),
(200,500,c)
);
}
);
width = 672;
}
);
note = b;
unicode = 98;
},
{
glyphname = c;
lastChange = "2024-06-01 14:12:38 +0000";
layers = (
{
layerId = m01;
shapes = (
{
closed = 1;
nodes = (
(513,3,o),
(566,16,o),
(616,40,cs),
(666,63,o),
(712,93,o),
(747,133,cs),
(782,172,o),
(803,217,o),
(799,268,cs),
(798,283,o),
(789,296,o),
(777,304,cs),
(765,312,o),
(749,313,o),
(736,304,cs),
(718,292,o),
(702,278,o),
(688,263,cs),
(659,231,o),
(625,198,o),
(578,173,cs),
(531,148,o),
(487,133,o),
(436,133,cs),
(410,133,o),
(384,136,o),
(359,141,cs),
(307,152,o),
(259,173,o),
(224,201,cs),
(185,233,o),
(158,274,o),
(146,319,cs),
(133,363,o),
(136,410,o),
(156,457,cs),
(176,500,o),
(211,535,o),
(255,551,cs),
(283,562,o),
(337,573,o),
(382,570,c),
(391,546,o),
(404,524,o),
(417,507,cs),
(453,460,o),
(506,411,o),
(566,396,cs),
(576,393,o),
(585,394,o),
(593,397,cs),
(609,404,o),
(620,418,o),
(622,436,cs),
(624,454,o),
(613,475,o),
(597,496,cs),
(581,516,o),
(562,535,o),
(542,554,cs),
(522,573,o),
(505,590,o),
(492,610,cs),
(479,629,o),
(462,651,o),
(453,673,cs),
(444,695,o),
(417,714,o),
(394,703,cs),
(370,691,o),
(361,661,o),
(368,621,c),
(276,640,o),
(181,624,o),
(109,556,cs),
(54,504,o),
(25,437,o),
(20,369,cs),
(15,300,o),
(34,229,o),
(77,169,cs),
(120,106,o),
(182,62,o),
(251,34,cs),
(320,6,o),
(397,-5,o),
(470,0,cs)
);
}
);
width = 821;
}
);
note = c;
unicode = 99;
},
{
glyphname = d;
lastChange = "2024-06-01 14:12:38 +0000";
layers = (
{
layerId = m01;
shapes = (
{
closed = 1;
nodes = (
(357,-46,o),
(445,-34,o),
(524,2,cs),
(603,38,o),
(673,98,o),
(724,167,cs),
(769,228,o),
(794,312,o),
(789,391,cs),
(784,470,o),
(750,543,o),
(678,587,cs),
(662,596,o),
(645,604,o),
(628,610,cs),
(593,621,o),
(555,626,o),
(519,627,cs),
(482,628,o),
(437,629,o),
(385,629,cs),
(359,629,o),
(333,630,o),
(306,632,cs),
(286,633,o),
(257,634,o),
(230,641,cs),
(202,648,o),
(178,660,o),
(173,683,cs),
(169,695,o),
(159,700,o),
(150,698,cs),
(141,696,o),
(132,689,o),
(131,677,cs),
(129,648,o),
(137,624,o),
(156,607,cs),
(193,572,o),
(251,555,o),
(311,548,cs),
(370,541,o),
(402,539,o),
(437,539,cs),
(454,538,o),
(472,538,o),
(489,537,cs),
(524,536,o),
(557,532,o),
(592,523,cs),
(667,500,o),
(689,443,o),
(686,370,cs),
(682,307,o),
(649,250,o),
(601,204,cs),
(553,158,o),
(491,124,o),
(431,112,c),
(435,117,o),
(437,122,o),
(438,127,cs),
(443,150,o),
(442,173,o),
(436,197,cs),
(423,244,o),
(398,291,o),
(368,333,cs),
(326,391,ls),
(275,464,o),
(211,524,o),
(134,569,cs),
(130,572,o),
(126,572,o),
(122,571,cs),
(114,568,o),
(108,562,o),
(108,554,cs),
(108,550,o),
(110,546,o),
(113,543,cs),
(128,529,o),
(143,515,o),
(158,502,cs),
(173,488,o),
(186,473,o),
(199,457,cs),
(223,425,o),
(240,386,o),
(256,350,cs),
(265,331,o),
(275,311,o),
(285,291,cs),
(304,251,o),
(324,211,o),
(340,168,cs),
(347,146,o),
(360,127,o),
(378,111,cs),
(381,109,ls),
(382,108,o),
(383,108,o),
(384,107,c),
(325,106,o),
(271,124,o),
(220,159,cs),
(206,169,o),
(195,180,o),
(187,193,cs),
(170,217,o),
(161,246,o),
(157,278,cs),
(151,324,ls),
(148,344,o),
(136,358,o),
(120,363,cs),
(104,367,o),
(86,361,o),
(74,344,cs),
(37,291,o),
(29,237,o),
(41,188,cs),
(53,139,o),
(85,93,o),
(126,57,cs),
(167,20,o),
(218,-9,o),
(269,-22,cs)
);
}
);
width = 821;
}
);
note = d;
unicode = 100;
},
{
glyphname = e;
lastChange = "2024-06-01 14:12:38 +0000";
layers = (
{
layerId = m01;
shapes = (
{
closed = 1;
nodes = (
(500,14,o),
(575,35,o),
(636,67,cs),
(665,83,o),
(697,105,o),
(721,133,cs),
(744,161,o),
(759,194,o),
(759,231,cs),
(759,263,o),
(750,295,o),
(732,320,cs),
(714,344,o),
(687,363,o),
(654,371,cs),
(641,374,o),
(627,371,o),
(617,364,cs),
(607,356,o),
(599,345,o),
(600,330,cs),
(601,315,o),
(604,301,o),
(609,288,cs),
(614,275,o),
(617,261,o),
(618,246,cs),
(618,231,o),
(605,220,o),
(589,210,cs),
(573,200,o),
(555,191,o),
(546,187,cs),
(510,168,o),
(465,159,o),
(419,156,cs),
(373,153,o),
(326,156,o),
(286,163,cs),
(255,168,o),
(225,175,o),
(202,198,cs),
(186,213,o),
(187,232,o),
(195,249,cs),
(203,266,o),
(217,282,o),
(228,293,cs),
(259,324,o),
(302,341,o),
(347,347,cs),
(391,353,o),
(436,346,o),
(475,330,cs),
(496,321,o),
(514,336,o),
(519,354,cs),
(524,372,o),
(518,394,o),
(495,402,cs),
(492,403,o),
(491,404,o),
(490,404,c),
(497,423,o),
(488,444,o),
(465,453,cs),
(433,466,o),
(398,469,o),
(363,471,cs),
(328,473,o),
(293,476,o),
(260,491,cs),
(225,508,o),
(200,550,o),
(207,590,cs),
(208,602,o),
(224,612,o),
(244,618,cs),
(264,624,o),
(289,628,o),
(310,629,c),
(333,604,o),
(366,584,o),
(401,574,cs),
(436,564,o),
(471,561,o),
(499,572,cs),
(510,576,o),
(519,586,o),
(521,598,cs),
(523,609,o),
(518,619,o),
(506,626,cs),
(491,633,o),
(477,639,o),
(462,642,cs),
(447,645,o),
(431,649,o),
(415,653,cs),
(400,657,o),
(380,664,o),
(362,674,cs),
(344,684,o),
(328,696,o),
(327,715,cs),
(327,727,o),
(317,736,o),
(307,737,cs),
(297,738,o),
(286,734,o),
(283,721,cs),
(278,701,o),
(281,685,o),
(289,666,c),
(254,669,o),
(222,671,o),
(187,663,cs),
(156,655,o),
(137,632,o),
(129,604,cs),
(120,575,o),
(119,541,o),
(124,516,cs),
(135,465,o),
(161,429,o),
(198,402,c),
(171,389,o),
(147,374,o),
(125,355,cs),
(72,308,o),
(54,237,o),
(67,170,cs),
(74,135,o),
(94,108,o),
(120,87,cs),
(146,66,o),
(177,49,o),
(206,37,cs),
(270,10,o),
(348,2,o),
(424,8,cs)
);
}
);
width = 774;
}
);
note = e;
unicode = 101;
},
{
glyphname = f;
lastChange = "2024-06-01 14:12:38 +0000";
layers = (
{
layerId = m01;
shapes = (
{
closed = 1;
nodes = (
(490,22,o),
(509,45,o),
(520,73,cs),
(531,101,o),
(531,135,o),
(527,163,cs),
(520,214,o),
(501,262,o),
(478,309,c),
(520,306,ls),
(543,303,o),
(565,298,o),
(586,291,cs),
(607,284,o),
(628,276,o),
(649,269,cs),
(669,262,o),
(687,272,o),
(698,286,cs),
(709,300,o),
(713,320,o),
(702,337,cs),
(673,382,o),
(626,406,o),
(574,418,cs),
(521,430,o),
(463,429,o),
(411,428,c),
(388,463,o),
(366,495,o),
(343,527,cs),
(339,532,o),
(335,538,o),
(331,544,cs),
(327,550,o),
(323,556,o),
(318,561,c),
(398,572,o),
(476,580,o),
(556,576,cs),
(595,573,o),
(637,571,o),
(668,544,cs),
(675,539,o),
(681,533,o),
(686,527,cs),
(691,520,o),
(696,514,o),
(701,508,cs),
(711,495,o),
(720,484,o),
(739,477,cs),
(758,470,o),
(777,485,o),
(782,502,cs),
(791,533,o),
(783,563,o),
(766,589,cs),
(749,615,o),
(722,637,o),
(697,650,cs),
(664,667,o),
(624,676,o),
(584,680,cs),
(544,684,o),
(502,681,o),
(466,680,cs),
(383,675,o),
(301,661,o),
(220,646,c),
(216,646,l),
(214,645,o),
(212,645,o),
(211,645,cs),
(204,646,o),
(200,647,o),
(197,647,cs),
(186,648,o),
(177,644,o),
(170,637,c),
(143,633,o),
(117,629,o),
(89,629,cs),
(73,629,o),
(46,635,o),
(21,645,cs),
(-4,655,o),
(-27,668,o),
(-35,685,cs),
(-38,690,o),
(-46,688,o),
(-47,683,cs),
(-55,656,o),
(-45,632,o),
(-28,611,cs),
(-12,590,o),
(13,573,o),
(33,561,cs),
(81,533,o),
(143,537,o),
(203,545,c),
(234,504,o),
(258,460,o),
(285,415,c),
(244,408,o),
(206,399,o),
(170,388,cs),
(147,381,o),
(120,373,o),
(96,361,cs),
(71,349,o),
(48,333,o),
(36,310,c),
(35,309,o),
(34,307,o),
(34,306,c),
(33,305,o),
(33,304,o),
(33,304,c),
(31,301,l),
(32,301,l),
(28,285,o),
(37,264,o),
(60,264,cs),
(83,265,o),
(106,268,o),
(129,274,cs),
(152,280,o),
(174,285,o),
(197,290,cs),
(245,299,o),
(293,306,o),
(342,309,c),
(363,268,o),
(381,225,o),
(394,180,cs),
(403,147,ls),
(407,126,o),
(406,100,o),
(403,77,cs),
(402,66,o),
(404,54,o),
(409,42,cs),
(417,21,o),
(435,9,o),
(458,14,cs)
);
}
);
width = 801;
}
);
note = f;
unicode = 102;
},
{
glyphname = g;
lastChange = "2024-06-01 14:12:38 +0000";
layers = (
{
layerId = m01;
shapes = (
{
closed = 1;
nodes = (
(622,22,o),
(689,60,o),
(733,121,cs),
(745,138,o),
(741,159,o),
(730,175,cs),
(718,190,o),
(699,199,o),
(679,192,cs),
(662,186,o),
(645,180,o),
(629,175,cs),
(613,169,o),
(597,164,o),
(581,159,cs),
(549,149,o),
(516,140,o),
(479,137,cs),
(411,132,o),
(332,152,o),
(272,187,cs),
(208,223,o),
(166,289,o),
(163,358,c),
(179,342,o),
(197,329,o),
(218,320,cs),
(258,300,o),
(302,290,o),
(349,286,cs),
(396,282,o),
(457,281,o),
(532,284,cs),
(569,285,o),
(607,284,o),
(645,281,cs),
(664,280,o),
(680,277,o),
(695,272,cs),
(724,262,o),
(750,247,o),
(775,228,cs),
(788,219,o),
(801,209,o),
(815,199,cs),
(824,192,o),
(839,194,o),
(849,200,cs),
(859,206,o),
(866,216,o),
(865,228,cs),
(861,263,o),
(849,291,o),
(828,312,cs),
(787,353,o),
(727,375,o),
(661,381,cs),
(595,387,o),
(542,385,o),
(471,376,cs),
(435,371,o),
(399,369,o),
(364,369,cs),
(292,368,o),
(222,379,o),
(173,426,c),
(180,442,o),
(188,458,o),
(200,473,cs),
(223,502,o),
(254,524,o),
(289,540,c),
(312,520,o),
(335,504,o),
(356,489,cs),
(387,469,o),
(436,454,o),
(482,452,cs),
(528,450,o),
(571,463,o),
(594,502,cs),
(621,547,o),
(601,582,o),
(566,607,cs),
(531,631,o),
(482,645,o),
(450,649,cs),
(389,656,o),
(326,647,o),
(269,627,c),
(246,648,o),
(227,669,o),
(211,692,c),
(204,700,o),
(193,695,o),
(196,686,c),
(200,660,o),
(210,635,o),
(227,611,c),
(220,608,o),
(214,606,o),
(207,602,cs),
(114,557,o),
(63,479,o),
(51,394,cs),
(38,309,o),
(63,215,o),
(123,139,cs),
(167,83,o),
(236,42,o),
(312,19,cs),
(388,-5,o),
(471,-10,o),
(547,6,cs)
);
},
{
closed = 1;
nodes = (
(439,523,o),
(406,535,o),
(375,550,cs),
(368,553,o),
(363,556,o),
(356,560,c),
(403,569,o),
(451,566,o),
(494,554,cs),
(507,550,o),
(515,547,o),
(518,544,cs),
(520,541,o),
(519,538,o),
(516,536,cs),
(508,531,o),
(490,527,o),
(474,526,cs)
);
}
);
width = 878;
}
);
note = g;
unicode = 103;
},
{
glyphname = h;
lastChange = "2024-06-01 14:12:38 +0000";
layers = (
{
layerId = m01;
shapes = (
{
closed = 1;
nodes = (
(769,-123,o),
(788,-116,o),
(797,-100,cs),
(810,-78,o),
(818,-55,o),
(820,-31,cs),
(824,16,o),
(812,64,o),
(788,111,cs),
(764,158,o),
(734,202,o),
(702,242,cs),
(686,261,o),
(671,279,o),
(658,296,cs),
(634,326,o),
(610,355,o),
(587,384,cs),
(539,441,o),
(503,510,o),
(497,575,cs),
(494,608,o),
(490,641,o),
(486,675,c),
(485,675,l),
(485,686,o),
(478,695,o),
(470,699,cs),
(461,703,o),
(448,702,o),
(439,694,cs),
(419,677,o),
(410,648,o),
(406,617,cs),
(402,586,o),
(403,555,o),
(406,531,cs),
(411,480,o),
(425,435,o),
(445,391,c),
(396,388,o),
(346,376,o),
(302,367,cs),
(266,361,l),
(259,408,o),
(252,453,o),
(240,497,cs),
(228,540,o),
(209,581,o),
(181,617,cs),
(161,642,o),
(130,638,o),
(109,622,cs),
(88,606,o),
(76,576,o),
(93,549,cs),
(102,536,o),
(109,521,o),
(114,505,cs),
(125,473,o),
(131,438,o),
(135,403,cs),
(141,351,l),
(130,351,o),
(118,352,o),
(107,354,cs),
(96,355,o),
(84,357,o),
(73,359,cs),
(49,362,o),
(27,365,o),
(3,362,cs),
(-12,359,o),
(-23,338,o),
(-6,329,cs),
(47,302,o),
(100,286,o),
(153,279,c),
(168,203,o),
(186,133,o),
(233,70,cs),
(253,45,o),
(281,42,o),
(301,54,cs),
(321,66,o),
(332,91,o),
(319,120,cs),
(296,169,o),
(285,221,o),
(277,277,c),
(302,279,o),
(327,282,o),
(352,285,cs),
(426,293,ls),
(438,294,o),
(450,295,o),
(463,296,cs),
(501,299,l),
(520,270,o),
(541,243,o),
(562,216,cs),
(605,163,o),
(635,116,o),
(658,81,cs),
(681,45,o),
(695,7,o),
(703,-31,cs),
(706,-50,o),
(711,-70,o),
(716,-89,cs),
(720,-109,o),
(736,-119,o),
(753,-121,cs)
);
}
);
width = 825;
}
);
note = h;
unicode = 104;
},
{
glyphname = i;
lastChange = "2024-06-01 14:12:38 +0000";
layers = (
{
layerId = m01;
shapes = (
{
closed = 1;
nodes = (
(715,-9,o),
(727,11,o),
(727,31,cs),
(727,51,o),
(715,71,o),
(694,75,cs),
(597,96,ls),
(566,103,o),
(534,113,o),
(502,128,cs),
(459,148,o),
(435,161,o),
(395,186,c),
(382,255,o),
(379,342,o),
(378,414,cs),
(378,482,o),
(376,557,o),
(389,625,c),
(389,628,l),
(421,636,o),
(452,646,o),
(479,658,cs),
(498,666,o),
(505,686,o),
(502,706,cs),
(499,725,o),
(488,742,o),
(468,746,cs),
(448,750,o),
(427,751,o),
(406,750,cs),
(363,746,o),
(319,738,o),
(275,730,cs),
(253,726,o),
(231,724,o),
(210,723,cs),
(167,722,o),
(127,728,o),
(92,755,c),
(92,754,l),
(77,765,o),
(56,758,o),
(48,738,cs),
(41,719,o),
(42,702,o),
(50,688,cs),
(66,659,o),
(98,638,o),
(134,627,cs),
(170,615,o),
(199,611,o),
(238,611,cs),
(257,611,o),
(277,612,o),
(297,613,c),
(290,581,o),
(285,548,o),
(282,514,cs),
(277,445,o),
(266,352,o),
(295,244,c),
(252,259,o),
(206,263,o),
(159,260,cs),
(135,259,o),
(106,255,o),
(80,247,cs),
(54,238,o),
(28,224,o),
(15,203,cs),
(8,192,o),
(11,183,o),
(18,177,cs),
(25,171,o),
(36,169,o),
(45,174,c),
(45,172,l),
(69,185,o),
(99,189,o),
(130,189,cs),
(161,189,o),
(192,185,o),
(217,180,cs),
(278,168,o),
(326,127,o),
(373,88,cs),
(420,49,o),
(470,19,o),
(523,0,cs),
(576,-20,o),
(634,-25,o),
(694,-13,cs)
);
}
);
width = 754;
}
);
note = i;
unicode = 105;
},
{
glyphname = j;
lastChange = "2024-06-01 14:12:38 +0000";
layers = (
{
layerId = m01;
shapes = (
{
closed = 1;
nodes = (
(401,-27,o),
(469,-20,o),
(532,-7,cs),
(557,-2,o),
(582,10,o),
(602,27,cs),
(621,44,o),
(633,67,o),
(636,95,cs),
(640,155,o),
(607,210,o),
(572,257,cs),
(529,316,o),
(489,367,o),
(458,432,cs),
(439,473,o),
(417,527,o),
(409,578,c),
(417,579,o),
(425,579,o),
(433,580,cs),
(440,581,o),
(448,581,o),
(456,582,cs),
(497,585,o),
(538,585,o),
(579,581,cs),
(619,576,o),
(660,573,o),
(701,572,cs),
(721,572,o),
(736,587,o),
(741,604,cs),
(746,621,o),
(742,642,o),
(722,650,cs),
(609,701,o),
(492,702,o),
(369,683,cs),
(308,675,o),
(247,665,o),
(187,656,cs),
(173,654,o),
(159,653,o),
(144,653,cs),
(115,653,o),
(89,659,o),
(76,673,cs),
(69,680,o),
(62,686,o),
(55,691,c),
(53,696,o),
(49,698,o),
(43,699,cs),
(20,700,o),
(13,687,o),
(13,670,cs),
(13,653,o),
(19,632,o),
(26,620,cs),
(42,592,o),
(71,576,o),
(104,568,cs),
(137,560,o),
(172,559,o),
(200,560,cs),
(247,561,o),
(291,565,o),
(338,570,c),
(337,540,o),
(340,510,o),
(348,480,cs),
(363,420,o),
(378,371,o),
(402,330,cs),
(425,289,o),
(452,249,o),
(478,209,cs),
(491,189,o),
(502,168,o),
(513,146,cs),
(517,137,o),
(520,127,o),
(522,118,c),
(522,112,l),
(515,109,o),
(506,107,o),
(497,107,cs),
(487,106,o),
(478,106,o),
(471,105,cs),
(422,102,o),
(369,103,o),
(321,112,cs),
(314,113,o),
(306,114,o),
(297,116,cs),
(278,120,o),
(259,126,o),
(243,136,cs),
(227,146,o),
(221,164,o),
(223,186,cs),
(225,208,o),
(232,231,o),
(241,253,cs),
(245,264,o),
(248,274,o),
(251,283,cs),
(255,300,o),
(246,315,o),
(234,323,cs),
(221,331,o),
(204,330,o),
(191,318,cs),
(147,275,o),
(116,223,o),
(109,171,cs),
(102,118,o),
(121,66,o),
(177,25,cs),
(221,-6,o),
(286,-14,o),
(337,-19,cs)
);
}
);
width = 752;
}
);
note = j;
unicode = 106;
},
{
glyphname = k;
lastChange = "2024-06-01 14:12:38 +0000";
layers = (
{
layerId = m01;
shapes = (
{
closed = 1;
nodes = (
(526,-272,o),
(542,-255,o),
(547,-231,cs),
(553,-195,o),
(555,-159,o),
(552,-124,cs),
(549,-89,o),
(547,-54,o),
(547,-18,cs),
(547,42,o),
(547,123,o),
(559,183,cs),
(562,198,o),
(567,215,o),
(573,236,cs),
(579,257,o),
(583,278,o),
(586,300,cs),
(591,343,o),
(588,384,o),
(559,408,c),
(542,425,o),
(503,431,o),
(461,430,cs),
(419,429,o),
(373,420,o),
(344,408,c),
(344,419,o),
(346,431,o),
(350,442,cs),
(354,453,o),
(356,461,o),
(356,466,c),
(368,507,o),
(370,550,o),
(373,591,cs),
(376,632,o),
(379,674,o),
(391,715,c),
(391,721,o),
(388,726,o),
(382,730,cs),
(370,738,o),
(342,725,o),
(326,698,cs),
(310,670,o),
(298,635,o),
(289,599,cs),
(284,581,o),
(279,565,o),
(273,550,c),
(267,526,o),
(261,504,o),
(255,485,cs),
(249,465,o),
(243,443,o),
(237,420,c),
(225,420,o),
(225,408,o),
(225,395,c),
(220,408,o),
(215,417,o),
(210,424,cs),
(205,431,o),
(202,437,o),
(202,443,c),
(173,484,o),
(140,540,o),
(121,600,cs),
(101,659,o),
(95,721,o),
(119,774,c),
(119,780,o),
(117,785,o),
(113,789,cs),
(109,793,o),
(107,792,o),
(107,786,c),
(80,774,o),
(62,757,o),
(51,734,cs),
(30,688,o),
(29,630,o),
(37,575,cs),
(45,519,o),
(50,471,o),
(79,415,cs),
(119,336,ls),
(166,253,o),
(178,184,o),
(178,100,c),
(183,81,o),
(196,68,o),
(209,62,cs),
(222,56,o),
(237,59,o),
(249,76,cs),
(273,105,o),
(284,138,o),
(289,171,cs),
(293,203,o),
(290,236,o),
(285,265,c),
(290,278,o),
(296,288,o),
(302,296,cs),
(308,303,o),
(314,313,o),
(321,325,c),
(327,328,o),
(336,330,o),
(348,332,cs),
(372,335,o),
(401,336,o),
(426,336,cs),
(453,336,l),
(477,336,l),
(477,313,o),
(465,290,o),
(453,265,c),
(429,189,o),
(409,94,o),
(405,1,cs),
(400,-92,o),
(412,-184,o),
(453,-255,c),
(470,-279,o),
(492,-284,o),
(509,-278,cs)
);
}
);
width = 623;
}
);
note = k;
unicode = 107;
},
{
glyphname = l;
layers = (
{
layerId = m01;
shapes = (
{
closed = 1;
nodes = (
(807,27,o),
(795,39,o),
(782,44,cs),
(774,47,ls),
(771,48,o),
(768,49,o),
(765,50,c),
(765,58,ls),
(765,60,o),
(764,63,o),
(763,66,cs),
(756,93,o),
(745,119,o),
(732,144,cs),
(719,169,o),
(707,195,o),
(698,222,cs),
(694,234,o),
(690,247,o),
(687,262,cs),
(684,276,o),
(680,290,o),
(677,304,cs),
(669,332,o),
(660,359,o),
(645,380,cs),
(634,397,o),
(609,404,o),
(593,387,cs),
(572,363,o),
(566,332,o),
(567,300,cs),
(568,268,o),
(576,235,o),
(583,207,cs),
(590,174,o),
(601,139,o),
(616,108,c),
(587,120,o),
(560,132,o),
(536,144,cs),
(511,156,o),
(487,168,o),
(463,179,cs),
(415,202,o),
(367,222,o),
(307,239,cs),
(290,244,o),
(239,252,o),
(183,255,c),
(194,278,o),
(203,304,o),
(208,331,cs),
(218,385,o),
(219,436,o),
(214,489,cs),
(209,542,o),
(204,598,o),
(192,654,cs),
(185,681,o),
(180,709,o),
(177,738,c),
(174,751,o),
(164,760,o),
(153,760,cs),
(141,760,o),
(131,753,o),
(131,738,cs),
(130,694,o),
(131,650,o),
(135,607,cs),
(138,564,o),
(141,520,o),
(142,477,cs),
(142,429,o),
(140,383,o),
(125,336,cs),
(114,300,o),
(91,276,o),
(66,252,c),
(34,248,o),
(6,239,o),
(-13,227,cs),
(-32,214,o),
(-40,195,o),
(-35,170,cs),
(-32,157,o),
(-22,150,o),
(-10,148,cs),
(2,146,o),
(15,150,o),
(23,158,c),
(26,158,ls),
(38,159,o),
(50,158,o),
(62,157,cs),
(107,154,ls),
(122,153,o),
(137,152,o),
(152,150,cs),
(239,138,o),
(310,108,o),
(389,73,cs),
(428,56,o),
(457,41,o),
(486,26,cs),
(514,10,o),
(543,-5,o),
(582,-22,cs),
(618,-38,o),
(656,-54,o),
(693,-59,cs),
(730,-64,o),
(766,-57,o),
(801,-28,c),
(813,-16,o),
(816,-1,o),
(812,13,cs)
);
},
{
closed = 1;
nodes = (
(29,179,l),
(30,178,o),
(30,177,o),
(30,177,c)
);
}
);
width = 807;
}
);
note = l;
unicode = 108;
},
{
glyphname = m;
lastChange = "2024-06-01 14:12:38 +0000";
layers = (
{
layerId = m01;
shapes = (
{
closed = 1;
nodes = (
(752,-85,o),
(785,-89,o),
(809,-65,cs),
(861,-12,o),
(865,42,o),
(845,92,cs),
(825,142,o),
(782,189,o),
(742,233,cs),
(703,274,o),
(676,329,o),
(657,389,cs),
(637,448,o),
(626,509,o),
(623,568,c),
(625,567,o),
(627,567,o),
(630,567,c),
(632,566,o),
(634,566,o),
(636,565,c),
(655,561,o),
(672,573,o),
(679,589,cs),
(686,604,o),
(684,623,o),
(664,632,cs),
(576,675,o),
(480,678,o),
(384,669,cs),
(324,664,o),
(271,640,o),
(215,619,cs),
(205,616,o),
(189,610,o),
(167,602,cs),
(145,594,o),
(122,588,o),
(99,583,cs),
(52,574,o),
(9,576,o),
(2,613,cs),
(-1,625,o),
(-12,630,o),
(-23,629,cs),
(-34,628,o),
(-43,619,o),
(-43,607,cs),
(-42,594,o),
(-39,583,o),
(-33,574,cs),
(-21,554,o),
(-1,541,o),
(21,531,cs),
(43,521,o),
(72,510,o),
(115,513,c),
(120,503,o),
(124,492,o),
(127,481,cs),
(130,469,o),
(132,459,o),
(135,451,cs),
(151,408,o),
(156,361,o),
(163,314,cs),
(171,265,o),
(179,212,o),
(168,161,cs),
(164,144,o),
(154,130,o),
(143,117,cs),
(132,104,o),
(122,90,o),
(118,73,cs),
(113,50,o),
(128,22,o),
(155,25,cs),
(212,30,o),
(239,75,o),
(250,127,cs),
(261,179,o),
(256,240,o),
(249,280,cs),
(238,341,o),
(227,404,o),
(202,461,cs),
(194,478,o),
(184,501,o),
(171,521,c),
(200,528,o),
(226,536,o),
(253,544,c),
(260,547,o),
(268,549,o),
(276,551,cs),
(298,557,l),
(301,542,o),
(306,528,o),
(312,514,cs),
(327,473,ls),
(342,422,o),
(351,369,o),
(360,318,cs),
(369,266,o),
(374,212,o),
(378,160,cs),
(382,107,o),
(385,54,o),
(394,2,cs),
(398,-21,o),
(415,-32,o),
(434,-33,cs),
(453,-34,o),
(473,-26,o),
(484,-9,cs),
(498,14,o),
(507,41,o),
(510,70,cs),
(516,128,o),
(509,189,o),
(495,249,cs),
(488,278,o),
(481,305,o),
(476,330,cs),
(467,371,o),
(457,417,o),
(442,459,cs),
(427,501,o),
(409,540,o),
(381,573,c),
(434,581,o),
(488,583,o),
(542,579,c),
(534,539,o),
(536,498,o),
(539,457,cs),
(542,396,o),
(549,337,o),
(569,278,cs),
(589,221,o),
(620,175,o),
(659,128,cs),
(666,120,o),
(674,111,o),
(683,102,cs),
(692,93,o),
(699,83,o),
(706,73,cs),
(719,52,o),
(726,30,o),
(713,9,cs),
(694,-20,o),
(706,-52,o),
(729,-68,cs)
);
}
);
width = 847;
}
);
note = m;
unicode = 109;
},
{
glyphname = n;
lastChange = "2024-06-01 14:12:38 +0000";
layers = (
{
layerId = m01;
shapes = (
{
closed = 1;
nodes = (
(302,-66,o),
(321,-61,o),
(334,-49,cs),
(347,-37,o),
(352,-19,o),
(340,-3,cs),
(313,30,o),
(284,52,o),
(249,68,c),
(253,81,o),
(256,96,o),
(257,113,cs),
(260,145,o),
(259,178,o),
(256,207,cs),
(254,222,o),
(253,234,o),
(252,245,cs),
(251,257,o),
(249,269,o),
(248,282,cs),
(247,294,o),
(245,306,o),
(243,317,c),
(252,308,o),
(262,299,o),
(272,290,cs),
(282,281,o),
(292,271,o),
(301,262,cs),
(350,215,o),
(399,170,o),
(442,118,cs),
(465,91,o),
(483,62,o),
(502,31,cs),
(507,22,o),
(513,14,o),
(518,5,cs),
(523,-4,o),
(528,-13,o),
(534,-20,cs),
(546,-36,o),
(562,-49,o),
(583,-54,cs),
(600,-59,o),
(618,-51,o),
(626,-36,cs),
(639,-16,o),
(641,7,o),
(637,31,cs),
(633,54,o),
(622,76,o),
(609,99,c),
(600,133,ls),
(597,144,o),
(594,156,o),
(591,167,cs),
(580,214,o),
(578,261,o),
(579,309,cs),
(579,373,o),
(590,435,o),
(599,499,c),
(658,496,o),
(716,506,o),
(760,525,cs),
(769,529,o),
(775,535,o),
(779,542,cs),
(786,556,o),
(784,572,o),
(776,588,cs),
(768,603,o),
(749,616,o),
(722,623,cs),
(695,630,o),
(667,632,o),
(639,630,cs),
(596,627,ls),
(568,625,o),
(538,627,o),
(507,632,c),
(496,635,o),
(485,639,o),
(472,644,c),
(467,645,o),
(464,647,o),
(461,650,cs),
(458,652,o),
(457,652,o),
(456,651,c),
(453,655,o),
(451,657,o),
(449,658,cs),
(426,674,o),
(395,660,o),
(388,633,cs),
(383,614,o),
(389,596,o),
(401,581,cs),
(412,566,o),
(428,553,o),
(441,544,cs),
(468,525,o),
(499,514,o),
(534,507,c),
(509,438,o),
(492,368,o),
(489,292,c),
(488,286,o),
(488,280,o),
(488,274,cs),
(488,254,l),
(467,277,o),
(446,296,o),
(423,315,cs),
(400,335,o),
(376,355,o),
(353,374,cs),
(330,393,o),
(307,413,o),
(285,434,cs),
(240,474,o),
(199,519,o),
(167,572,cs),
(160,584,o),
(146,588,o),
(134,588,cs),
(121,587,o),
(110,579,o),
(106,567,c),
(95,563,o),
(88,554,o),
(93,539,cs),
(130,446,o),
(154,345,o),
(158,245,cs),
(159,206,o),
(157,169,o),
(153,130,cs),
(152,125,o),
(152,119,o),
(151,114,cs),
(148,97,l),
(105,104,o),
(58,100,o),
(26,76,cs),
(15,68,o),
(12,55,o),
(13,44,cs),
(14,33,o),
(23,23,o),
(36,22,c),
(127,23,o),
(207,-13,o),
(286,-57,cs)
);
}
);
width = 783;
}
);
note = n;
unicode = 110;
},
{
glyphname = o;
lastChange = "2024-06-01 14:12:38 +0000";
layers = (
{
layerId = m01;
shapes = (
{
closed = 1;
nodes = (
(362,-17,o),
(495,-14,o),
(606,45,cs),
(657,72,o),
(695,115,o),
(716,165,cs),
(737,215,o),
(741,271,o),
(724,326,cs),
(691,426,o),
(606,504,o),
(507,533,cs),
(463,546,o),
(414,552,o),
(368,545,cs),
(322,537,o),
(280,516,o),
(252,475,cs),
(241,460,o),
(246,443,o),
(255,431,cs),
(264,418,o),
(281,409,o),
(297,416,cs),
(353,436,o),
(417,434,o),
(473,412,cs),
(529,390,o),
(575,348,o),
(598,292,cs),
(611,260,o),
(606,229,o),
(590,204,cs),
(574,179,o),
(548,160,o),
(519,148,cs),
(438,116,o),
(347,127,o),
(267,156,cs),
(211,176,o),
(168,222,o),
(145,277,cs),
(112,357,o),
(134,432,o),
(189,497,cs),
(236,554,o),
(311,592,o),
(390,602,cs),
(469,612,o),
(550,593,o),
(607,540,cs),
(623,525,o),
(642,531,o),
(654,543,cs),
(665,554,o),
(669,573,o),
(653,586,cs),
(576,651,o),
(470,677,o),
(369,668,cs),
(268,659,o),
(168,615,o),
(103,540,cs),
(27,452,o),
(4,345,o),
(41,234,cs),
(74,133,o),
(150,69,o),
(246,30,cs)
);
}
);
width = 766;
}
);
note = o;
unicode = 111;
},
{
glyphname = p;
lastChange = "2024-06-01 14:12:38 +0000";
layers = (
{
layerId = m01;
shapes = (
{
closed = 1;
nodes = (
(417,-65,o),
(445,-67,o),
(474,-54,cs),
(486,-49,o),
(491,-38,o),
(492,-26,cs),
(493,-14,o),
(490,-2,o),
(482,6,cs),
(469,19,o),
(455,29,o),
(439,34,cs),
(423,39,o),
(407,45,o),
(391,52,cs),
(361,64,l),
(382,105,o),
(382,159,o),
(377,202,cs),
(376,207,o),
(376,212,o),
(376,217,c),
(373,230,l),
(457,231,o),
(542,264,o),
(598,313,cs),
(642,352,o),
(675,409,o),
(685,468,cs),
(695,527,o),
(683,588,o),
(639,635,cs),
(594,683,o),
(531,699,o),
(467,699,cs),
(403,699,o),
(336,682,o),
(280,662,cs),
(249,651,o),
(220,637,o),
(189,621,c),
(158,654,o),
(119,682,o),
(74,669,cs),
(63,665,o),
(59,656,o),
(59,647,cs),
(59,638,o),
(64,629,o),
(72,626,c),
(89,614,o),
(103,598,o),
(116,581,c),
(113,580,o),
(111,578,o),
(109,577,cs),
(107,576,o),
(105,574,o),
(102,573,c),
(51,542,o),
(11,507,o),
(-12,451,cs),
(-17,438,o),
(0,426,o),
(11,433,cs),
(56,465,o),
(105,492,o),
(156,516,c),
(159,510,ls),
(186,463,o),
(207,413,o),
(226,362,c),
(227,357,o),
(229,353,o),
(230,349,cs),
(231,345,o),
(233,341,o),
(234,336,c),
(222,328,o),
(217,315,o),
(218,303,cs),
(218,290,o),
(225,276,o),
(237,268,c),
(240,267,o),
(242,265,o),
(245,263,cs),
(248,261,o),
(250,259,o),
(253,258,c),
(257,239,o),
(260,221,o),
(263,202,cs),
(266,184,o),
(266,166,o),
(263,148,cs),
(260,129,o),
(258,111,o),
(257,93,c),
(244,95,o),
(231,96,o),
(216,96,cs),
(201,96,o),
(186,95,o),
(173,92,cs),
(145,86,o),
(120,73,o),
(111,52,cs),
(103,35,o),
(119,18,o),
(136,26,cs),
(147,31,o),
(160,32,o),
(174,28,cs),
(188,24,o),
(201,21,o),
(212,19,cs),
(229,15,o),
(246,10,o),
(262,3,cs),
(294,-10,o),
(322,-24,o),
(349,-38,cs),
(362,-45,o),
(376,-51,o),
(390,-56,cs)
);
},
{
closed = 1;
nodes = (
(333,378,o),
(325,398,o),
(316,419,cs),
(296,466,o),
(273,514,o),
(242,557,c),
(263,566,o),
(286,575,o),
(309,583,cs),
(356,598,o),
(404,608,o),
(452,608,cs),
(476,608,o),
(499,605,o),
(522,599,cs),
(574,586,o),
(587,546,o),
(579,506,cs),
(571,465,o),
(544,421,o),
(513,400,cs),
(458,363,o),
(401,359,o),
(341,355,c)
);
}
);
width = 717;
}
);
note = p;
unicode = 112;
},
{
glyphname = q;
lastChange = "2024-06-01 14:12:38 +0000";
layers = (
{
layerId = m01;
shapes = (
{
closed = 1;
nodes = (
(295,9,o),
(357,24,o),
(414,49,cs),
(470,74,o),
(506,105,o),
(545,140,c),
(555,129,o),
(565,119,o),
(575,109,cs),
(584,98,o),
(594,88,o),
(605,79,cs),
(658,30,o),
(723,8,o),
(786,12,cs),
(849,16,o),
(910,46,o),
(958,99,cs),
(967,109,o),
(971,120,o),
(971,131,cs),
(971,142,o),
(968,151,o),
(962,159,cs),
(949,175,o),
(926,183,o),
(903,171,cs),
(888,164,o),
(872,156,o),
(856,149,cs),
(840,141,o),
(824,135,o),
(808,130,cs),
(775,121,o),
(742,120,o),
(709,137,cs),
(672,156,o),
(642,182,o),
(611,209,c),
(638,242,o),
(661,278,o),
(676,319,cs),
(697,375,o),
(705,437,o),
(694,494,cs),
(683,551,o),
(655,605,o),
(606,641,cs),
(558,677,o),
(500,689,o),
(441,686,cs),
(381,683,o),
(321,667,o),
(270,647,cs),
(215,627,o),
(160,600,o),
(113,564,cs),
(65,528,o),
(26,482,o),
(6,425,cs),
(1,410,o),
(9,398,o),
(21,391,cs),
(33,383,o),
(49,383,o),
(60,395,cs),
(119,459,o),
(173,508,o),
(252,545,cs),
(289,564,o),
(337,580,o),
(383,588,cs),
(429,596,o),
(476,594,o),
(516,577,cs),
(560,557,o),
(581,519,o),
(589,476,cs),
(596,433,o),
(588,385,o),
(575,346,cs),
(566,318,o),
(549,292,o),
(528,268,c),
(487,291,o),
(437,310,o),
(390,313,cs),
(331,317,o),
(294,302,o),
(251,263,cs),
(244,256,o),
(247,250,o),
(251,246,cs),
(255,242,o),
(262,241,o),
(269,245,c),
(297,266,o),
(332,267,o),
(367,258,cs),
(402,249,o),
(436,230,o),
(461,214,cs),
(469,208,l),
(467,205,o),
(465,203,o),
(463,201,cs),
(457,195,ls),
(430,171,o),
(392,146,o),
(351,128,cs),
(310,110,o),
(266,98,o),
(227,103,cs),
(188,107,o),
(156,127,o),
(137,174,cs),
(116,226,o),
(126,276,o),
(151,321,cs),
(176,365,o),
(219,405,o),
(267,434,cs),
(314,462,o),
(365,483,o),
(409,488,cs),
(418,489,o),
(425,497,o),
(425,505,cs),
(425,513,o),
(420,520,o),
(409,520,cs),
(362,518,o),
(316,508,o),
(269,490,cs),
(176,454,o),
(102,391,o),
(65,306,cs),
(28,221,o),
(50,119,o),
(86,75,cs),
(122,31,o),
(174,10,o),
(235,10,cs)
);
}
);
width = 885;
}
);
note = q;
unicode = 113;
},
{
glyphname = r;
lastChange = "2024-06-01 14:12:38 +0000";
layers = (
{
layerId = m01;
shapes = (
{
closed = 1;
nodes = (
(214,-130,o),
(227,-120,o),
(232,-105,cs),
(237,-92,o),
(241,-78,o),
(243,-63,cs),
(245,-48,o),
(249,-34,o),
(254,-20,cs),
(265,11,o),
(285,38,o),
(306,62,cs),
(349,113,o),
(403,157,o),
(459,196,cs),
(474,207,o),
(478,226,o),
(472,242,cs),
(466,258,o),
(451,269,o),
(431,261,cs),
(373,240,o),
(319,210,o),
(270,171,c),
(267,194,o),
(261,216,o),
(254,238,cs),
(246,259,o),
(238,281,o),
(231,303,c),
(291,338,o),
(352,368,o),
(416,397,cs),
(472,422,o),
(527,433,o),
(587,441,c),
(568,369,o),
(578,299,o),
(585,223,cs),
(586,213,o),
(587,202,o),
(589,191,cs),
(593,167,o),
(596,143,o),
(596,120,cs),
(595,97,o),
(586,79,o),
(571,63,cs),
(556,47,o),
(539,33,o),
(521,21,cs),
(512,14,o),
(503,8,o),
(495,2,cs),
(475,-14,o),
(475,-36,o),
(484,-54,cs),
(492,-72,o),
(512,-88,o),
(533,-89,cs),
(564,-92,o),
(592,-86,o),
(617,-73,cs),
(667,-47,o),
(702,-2,o),
(719,55,cs),
(736,111,o),
(732,171,o),
(717,233,cs),
(710,264,o),
(704,295,o),
(700,326,cs),
(697,348,o),
(696,371,o),
(697,395,cs),
(698,419,o),
(695,442,o),
(690,465,c),
(701,488,o),
(690,518,o),
(658,519,cs),
(577,522,o),
(501,510,o),
(428,481,c),
(463,529,o),
(492,581,o),
(499,641,cs),
(501,659,o),
(499,676,o),
(493,692,cs),
(481,723,o),
(451,737,o),
(428,738,cs),
(405,738,o),
(382,733,o),
(359,726,cs),
(348,722,o),
(337,719,o),
(328,716,cs),
(281,701,o),
(234,689,o),
(185,684,cs),
(172,683,o),
(141,681,o),
(111,685,cs),
(81,688,o),
(52,697,o),
(45,714,cs),
(40,729,o),
(14,738,o),
(6,719,cs),
(-2,701,o),
(-4,685,o),
(0,670,cs),
(7,641,o),
(30,619,o),
(62,604,cs),
(93,588,o),
(127,578,o),
(156,577,c),
(129,505,o),
(130,426,o),
(135,350,cs),
(136,315,o),
(141,274,o),
(152,235,cs),
(163,195,o),
(180,160,o),
(211,137,cs),
(214,135,o),
(218,133,o),
(225,130,c),
(209,114,ls),
(182,83,o),
(153,43,o),
(140,0,cs),
(127,-44,o),
(129,-87,o),
(162,-123,cs),
(174,-136,o),
(189,-139,o),
(202,-134,cs)
);
},
{
closed = 1;
nodes = (
(208,428,o),
(206,458,o),
(207,487,cs),
(207,516,o),
(205,546,o),
(202,576,c),
(262,579,o),
(321,596,o),
(374,612,c),
(377,612,l),
(372,597,o),
(364,582,o),
(354,569,cs),
(333,541,o),
(317,520,o),
(296,499,cs),
(285,488,o),
(275,478,o),
(265,467,cs),
(244,446,o),
(223,422,o),
(211,398,c)
);
}
);
width = 767;
}
);
note = r;
unicode = 114;
},
{
glyphname = s;
lastChange = "2024-06-01 14:12:38 +0000";
layers = (
{
layerId = m01;
shapes = (
{
closed = 1;
nodes = (
(555,-5,o),
(662,14,o),
(743,67,cs),
(771,86,o),
(797,120,o),
(808,155,cs),
(819,190,o),
(812,226,o),
(773,249,cs),
(756,259,o),
(737,267,o),
(716,272,cs),
(675,282,o),
(630,285,o),
(587,288,cs),
(565,289,o),
(544,291,o),
(524,293,cs),
(415,304,o),
(302,335,o),
(207,394,cs),
(166,419,o),
(122,458,o),
(102,493,cs),
(83,526,o),
(90,562,o),
(114,589,cs),
(130,605,o),
(151,613,o),
(175,617,cs),
(198,621,o),
(222,619,o),
(243,618,cs),
(284,615,o),
(330,609,o),
(372,595,cs),
(414,581,o),
(452,560,o),
(484,532,cs),
(488,528,l),
(472,497,o),
(460,457,o),
(463,422,cs),
(466,386,o),
(483,355,o),
(524,343,cs),
(536,340,o),
(546,341,o),
(555,347,cs),
(572,359,o),
(582,384,o),
(582,410,cs),
(581,423,o),
(583,436,o),
(586,449,cs),
(594,478,o),
(608,503,o),
(623,530,cs),
(638,557,o),
(654,587,o),
(665,619,cs),
(676,650,o),
(683,682,o),
(680,713,cs),
(679,726,o),
(671,735,o),
(661,738,cs),
(651,741,o),
(640,738,o),
(632,727,cs),
(615,699,o),
(596,673,o),
(576,648,cs),
(555,623,o),
(535,598,o),
(516,571,c),
(461,618,o),
(404,643,o),
(329,662,cs),
(289,673,o),
(245,681,o),
(201,681,cs),
(157,681,o),
(114,672,o),
(78,651,cs),
(42,630,o),
(21,595,o),
(13,558,cs),
(5,521,o),
(10,480,o),
(26,445,cs),
(49,396,o),
(92,357,o),
(135,325,cs),
(219,261,o),
(317,225,o),
(418,202,cs),
(439,197,o),
(461,193,o),
(483,190,cs),
(527,184,o),
(570,178,o),
(614,173,cs),
(635,170,o),
(657,167,o),
(678,162,c),
(643,139,o),
(603,130,o),
(563,122,cs),
(503,111,o),
(437,111,o),
(370,118,cs),
(303,125,o),
(238,136,o),
(181,151,cs),
(168,154,o),
(156,156,o),
(145,157,cs),
(134,157,o),
(122,158,o),
(109,159,cs),
(89,160,o),
(77,148,o),
(71,133,cs),
(65,118,o),
(66,99,o),
(78,86,cs),
(121,42,o),
(187,16,o),
(257,2,cs),
(327,-12,o),
(400,-15,o),
(459,-12,cs)
);
}
);
width = 823;
}
);
note = s;
unicode = 115;
},
{
glyphname = t;
lastChange = "2024-06-01 14:12:38 +0000";
layers = (
{
layerId = m01;
shapes = (
{
closed = 1;
nodes = (
(720,-50,o),
(737,-47,o),
(750,-39,cs),
(762,-31,o),
(770,-17,o),
(763,2,cs),
(754,29,o),
(741,53,o),
(727,78,cs),
(713,102,o),
(698,127,o),
(689,154,cs),
(670,210,o),
(668,263,o),
(671,322,cs),
(672,338,o),
(660,349,o),
(647,353,cs),
(634,357,o),
(618,353,o),
(610,338,cs),
(581,286,o),
(571,214,o),
(582,143,c),
(550,151,o),
(518,157,o),
(485,160,cs),
(420,167,o),
(358,179,o),
(309,200,c),
(327,210,o),
(344,220,o),
(360,230,cs),
(436,279,o),
(459,354,o),
(427,438,cs),
(418,461,o),
(401,490,o),
(378,517,c),
(406,524,o),
(434,530,o),
(461,536,cs),
(515,547,o),
(580,562,o),
(657,539,cs),
(674,534,o),
(691,526,o),
(707,515,cs),
(723,504,o),
(740,495,o),
(757,488,cs),
(769,483,o),
(784,488,o),
(793,497,cs),
(802,506,o),
(807,521,o),
(802,533,cs),
(788,568,o),
(768,594,o),
(742,613,cs),
(689,649,o),
(624,662,o),
(555,658,cs),
(486,654,o),
(418,641,o),
(343,619,cs),
(306,608,o),
(268,598,o),
(230,590,cs),
(194,581,o),
(156,575,o),
(119,582,cs),
(107,585,o),
(89,592,o),
(73,602,cs),
(56,612,o),
(42,624,o),
(39,639,cs),
(38,646,o),
(34,649,o),
(28,649,cs),
(21,649,o),
(16,647,o),
(13,642,cs),
(-2,622,o),
(1,597,o),
(13,574,cs),
(24,551,o),
(43,531,o),
(60,520,cs),
(127,481,o),
(200,483,o),
(272,494,c),
(283,497,o),
(290,498,o),
(301,499,c),
(320,480,o),
(337,454,o),
(346,438,cs),
(359,413,o),
(362,390,o),
(354,370,cs),
(338,329,o),
(288,310,o),
(246,298,cs),
(225,292,o),
(205,282,o),
(188,267,cs),
(172,254,o),
(158,235,o),
(151,215,cs),
(143,194,o),
(144,172,o),
(157,152,cs),
(180,119,o),
(215,96,o),
(253,79,cs),
(291,62,o),
(333,51,o),
(369,42,cs),
(452,23,o),
(541,14,o),
(626,25,c),
(646,-4,o),
(672,-28,o),
(705,-43,cs)
);
}
);
width = 809;
}
);
note = t;
unicode = 116;
},
{
glyphname = u;
lastChange = "2024-06-01 14:12:38 +0000";
layers = (
{
layerId = m01;
shapes = (
{
closed = 1;
nodes = (
(779,-61,o),
(792,-50,o),
(796,-34,cs),
(805,-3,o),
(806,28,o),
(797,59,cs),
(779,120,o),
(739,178,o),
(694,230,cs),
(671,255,o),
(651,279,o),
(634,301,cs),
(595,350,o),
(553,407,o),
(530,467,cs),
(518,498,o),
(509,536,o),
(503,574,cs),
(497,612,o),
(495,650,o),
(502,682,cs),
(503,691,o),
(493,699,o),
(486,691,cs),
(438,642,o),
(424,578,o),
(429,512,cs),
(433,446,o),
(456,379,o),
(484,324,cs),
(504,285,o),
(527,251,o),
(554,216,c),
(543,216,o),
(535,215,o),
(524,210,cs),
(483,191,o),
(421,183,o),
(362,191,cs),
(303,199,o),
(248,222,o),
(223,266,cs),
(216,278,o),
(212,292,o),
(213,309,cs),
(214,341,o),
(222,376,o),
(229,409,cs),
(232,426,o),
(234,441,o),
(233,455,cs),
(230,488,o),
(217,520,o),
(194,547,c),
(230,558,o),
(265,573,o),
(290,594,cs),
(314,614,o),
(330,639,o),
(330,671,cs),
(330,680,o),
(327,689,o),
(320,696,cs),
(307,711,o),
(286,706,o),
(267,699,cs),
(247,691,o),
(229,681,o),
(212,670,cs),
(203,665,o),
(194,660,o),
(185,656,cs),
(138,635,o),
(86,613,o),
(33,608,cs),
(6,605,o),
(-7,586,o),
(-7,566,cs),
(-8,546,o),
(5,525,o),
(33,524,cs),
(56,523,o),
(88,524,o),
(123,531,c),
(130,518,o),
(137,505,o),
(142,493,cs),
(152,468,o),
(142,428,o),
(126,390,cs),
(118,371,o),
(112,351,o),
(108,331,cs),
(93,256,o),
(118,189,o),
(171,138,cs),
(198,113,o),
(232,96,o),
(269,84,cs),
(306,72,o),
(345,67,o),
(381,64,cs),
(461,57,o),
(532,65,o),
(593,121,cs),
(601,129,o),
(606,137,o),
(608,144,c),
(609,142,o),
(611,140,o),
(613,139,c),
(617,133,ls),
(628,118,o),
(637,104,o),
(646,90,cs),
(662,61,o),
(679,28,o),
(692,-6,cs),
(698,-23,o),
(708,-39,o),
(721,-54,cs),
(733,-66,o),
(749,-69,o),
(764,-65,cs)
);
}
);
width = 811;
}
);
note = u;
unicode = 117;
},
{
glyphname = v;
lastChange = "2024-06-01 14:12:38 +0000";
layers = (
{
layerId = m01;
shapes = (
{
closed = 1;
nodes = (
(371,-62,o),
(402,-46,o),
(415,-24,cs),
(428,-2,o),
(435,26,o),
(437,54,cs),
(440,91,ls),
(447,155,o),
(453,216,o),
(470,277,cs),
(486,335,o),
(512,390,o),
(547,442,cs),
(565,468,o),
(586,492,o),
(611,514,cs),
(635,536,o),
(657,559,o),
(678,583,cs),
(682,587,o),
(685,592,o),
(686,597,c),
(721,586,o),
(752,576,o),
(780,561,cs),
(797,552,o),
(818,563,o),
(818,583,cs),
(818,608,o),
(805,628,o),
(788,642,cs),
(771,656,o),
(747,665,o),
(727,673,cs),
(710,680,o),
(691,686,o),
(671,690,cs),
(651,693,o),
(632,698,o),
(613,703,cs),
(575,713,o),
(539,729,o),
(519,765,cs),
(508,784,o),
(491,785,o),
(478,777,cs),
(465,769,o),
(456,752,o),
(464,733,cs),
(487,682,o),
(528,654,o),
(577,634,c),
(526,609,o),
(483,573,o),
(447,528,cs),
(374,437,o),
(339,331,o),
(322,222,c),
(313,236,ls),
(310,240,o),
(306,244,o),
(303,248,cs),
(283,273,o),
(263,298,o),
(244,321,cs),
(224,344,o),
(206,369,o),
(191,398,cs),
(186,407,o),
(181,417,o),
(178,427,cs),
(175,437,o),
(171,447,o),
(168,457,c),
(165,462,o),
(163,478,o),
(163,493,c),
(198,497,o),
(229,507,o),
(257,524,cs),
(273,533,o),
(276,550,o),
(270,563,cs),
(264,575,o),
(250,586,o),
(233,582,cs),
(215,578,o),
(197,574,o),
(178,569,cs),
(159,564,o),
(141,561,o),
(122,558,cs),
(84,553,o),
(46,553,o),
(10,568,cs),
(-3,573,o),
(-14,566,o),
(-18,555,cs),
(-23,543,o),
(-21,529,o),
(-9,522,cs),
(22,503,o),
(60,494,o),
(100,491,c),
(97,481,o),
(95,472,o),
(94,463,cs),
(87,406,o),
(106,352,o),
(133,301,cs),
(149,269,o),
(171,240,o),
(194,212,cs),
(228,170,ls),
(250,142,o),
(270,108,o),
(289,70,cs),
(317,13,l),
(318,9,o),
(318,5,o),
(319,2,c),
(319,-2,o),
(319,-6,o),
(320,-9,cs),
(320,-10,o),
(320,-12,o),
(321,-13,c),
(321,-17,l),
(322,-18,o),
(322,-20,o),
(322,-22,c),
(323,-22,l),
(328,-33,o),
(336,-42,o),
(348,-49,cs)
);
}
);
width = 827;
}
);
note = v;
unicode = 118;
},
{
glyphname = w;
lastChange = "2024-06-01 14:12:38 +0000";
layers = (
{
layerId = m01;
shapes = (
{
closed = 1;
nodes = (
(598,-57,o),
(638,-48,o),
(649,-16,c),
(668,-9,o),
(687,0,o),
(706,11,cs),
(725,22,o),
(743,31,o),
(761,40,cs),
(793,56,o),
(813,82,o),
(821,111,cs),
(828,140,o),
(821,173,o),
(800,202,cs),
(777,233,o),
(750,260,o),
(723,288,cs),
(695,315,o),
(667,342,o),
(644,374,cs),
(625,399,o),
(603,432,o),
(584,467,cs),
(565,502,o),
(550,539,o),
(545,574,c),
(577,583,o),
(607,594,o),
(635,609,cs),
(647,616,o),
(652,629,o),
(650,642,cs),
(648,654,o),
(639,666,o),
(626,669,cs),
(570,682,o),
(509,673,o),
(456,654,cs),
(441,649,o),
(418,639,o),
(402,627,cs),
(386,614,o),
(376,595,o),
(385,574,c),
(386,573,l),
(386,572,o),
(386,572,o),
(387,571,c),
(392,560,o),
(406,553,o),
(417,553,cs),
(442,554,o),
(466,557,o),
(491,562,c),
(488,535,o),
(489,508,o),
(493,481,cs),
(501,426,o),
(519,374,o),
(544,327,cs),
(569,279,o),
(606,231,o),
(657,178,cs),
(675,160,ls),
(681,154,o),
(687,148,o),
(692,142,c),
(681,136,o),
(669,130,o),
(657,125,cs),
(644,120,o),
(632,114,o),
(620,109,cs),
(596,98,o),
(572,85,o),
(556,65,c),
(525,77,l),
(514,80,o),
(504,85,o),
(493,91,cs),
(471,103,o),
(455,120,o),
(444,141,cs),
(422,184,o),
(417,236,o),
(417,285,cs),
(417,309,o),
(414,333,o),
(409,358,cs),
(400,405,o),
(364,438,o),
(333,471,cs),
(330,474,o),
(327,475,o),
(324,475,cs),
(320,475,o),
(317,474,o),
(315,472,cs),
(310,468,o),
(307,461,o),
(311,454,cs),
(320,441,o),
(328,427,o),
(336,412,cs),
(352,383,o),
(357,352,o),
(350,321,cs),
(346,305,o),
(343,290,o),
(340,275,cs),
(329,215,o),
(323,166,o),
(343,107,cs),
(346,100,ls),
(347,98,o),
(347,96,o),
(348,94,c),
(313,109,ls),
(300,114,o),
(288,119,o),
(277,124,cs),
(229,148,o),
(217,177,o),
(220,230,cs),
(225,303,o),
(227,375,o),
(194,438,c),
(216,454,o),
(235,472,o),
(252,493,cs),
(259,502,o),
(259,517,o),
(255,526,cs),
(250,535,o),
(240,541,o),
(227,537,cs),
(211,533,o),
(196,527,o),
(182,519,cs),
(154,503,o),
(137,491,o),
(117,476,cs),
(107,468,o),
(96,461,o),
(85,454,cs),
(62,441,o),
(40,431,o),
(24,438,cs),
(11,443,o),
(0,436,o),
(-4,425,cs),
(-8,413,o),
(-7,399,o),
(5,392,cs),
(22,380,o),
(46,379,o),
(68,383,cs),
(90,387,o),
(113,396,o),
(130,403,cs),
(137,406,o),
(144,409,o),
(151,413,c),
(160,364,o),
(146,314,o),
(132,266,cs),
(125,241,o),
(120,217,o),
(117,192,cs),
(111,143,o),
(130,95,o),
(172,55,cs),
(214,14,o),
(267,-12,o),
(320,-12,cs),
(346,-12,o),
(368,-2,o),
(387,19,cs),
(390,22,o),
(391,24,o),
(392,26,c),
(407,10,o),
(423,-4,o),
(441,-16,cs),
(476,-40,o),
(516,-53,o),
(557,-55,cs)
);
}
);
width = 833;
}
);
note = w;
unicode = 119;
},
{
glyphname = x;
lastChange = "2024-06-01 14:12:38 +0000";
layers = (
{
layerId = m01;
shapes = (
{
closed = 1;
nodes = (
(702,-133,o),
(716,-126,o),
(728,-114,cs),
(739,-102,o),
(746,-80,o),
(746,-55,cs),
(745,-30,o),
(748,-2,o),
(755,26,cs),
(762,54,o),
(770,80,o),
(779,108,cs),
(784,122,o),
(788,136,o),
(791,151,cs),
(797,180,o),
(800,209,o),
(793,237,cs),
(788,260,o),
(759,271,o),
(740,259,cs),
(728,252,o),
(717,241,o),
(708,228,cs),
(688,201,o),
(672,168,o),
(660,136,cs),
(654,119,o),
(648,104,o),
(643,91,c),
(607,121,o),
(571,150,o),
(534,179,cs),
(497,208,o),
(460,237,o),
(423,267,c),
(439,282,o),
(454,298,o),
(468,315,cs),
(525,386,o),
(552,466,o),
(536,550,c),
(548,553,o),
(560,555,o),
(571,558,cs),
(582,560,o),
(593,563,o),
(604,566,cs),
(624,571,o),
(632,588,o),
(629,604,cs),
(626,620,o),
(614,635,o),
(595,636,cs),
(563,639,o),
(516,641,o),
(474,633,cs),
(432,624,o),
(396,605,o),
(385,565,cs),
(382,552,o),
(391,545,o),
(402,542,c),
(430,538,o),
(460,539,o),
(491,543,c),
(490,504,o),
(473,467,o),
(450,435,cs),
(427,402,o),
(398,371,o),
(370,347,cs),
(349,329,l),
(282,388,o),
(215,458,o),
(178,541,c),
(242,562,o),
(302,601,o),
(323,630,cs),
(327,635,o),
(329,641,o),
(329,648,cs),
(329,654,o),
(328,660,o),
(326,665,cs),
(321,676,o),
(311,685,o),
(299,689,cs),
(276,696,o),
(254,698,o),
(233,694,cs),
(189,685,o),
(147,666,o),
(104,647,cs),
(83,637,o),
(61,631,o),
(39,628,cs),
(11,624,o),
(7,591,o),
(16,570,cs),
(35,527,o),
(79,520,o),
(131,529,c),
(136,512,o),
(142,495,o),
(149,477,cs),
(176,409,o),
(214,352,o),
(261,296,cs),
(266,289,o),
(270,285,o),
(277,278,c),
(240,254,o),
(206,229,o),
(175,197,c),
(136,225,o),
(90,243,o),
(41,247,cs),
(13,248,o),
(0,228,o),
(0,207,cs),
(0,186,o),
(14,162,o),
(41,161,cs),
(57,160,o),
(75,150,o),
(92,137,cs),
(108,124,o),
(123,109,o),
(134,98,cs),
(148,83,o),
(159,65,o),
(167,45,cs),
(175,25,o),
(185,7,o),
(198,-10,cs),
(210,-26,o),
(230,-32,o),
(247,-28,cs),
(264,-25,o),
(279,-12,o),
(278,12,cs),
(276,49,o),
(266,83,o),
(248,114,c),
(264,127,o),
(280,141,o),
(295,156,cs),
(310,170,o),
(326,184,o),
(342,197,c),
(344,198,o),
(346,200,o),
(349,203,c),
(430,126,o),
(522,58,o),
(617,1,c),
(610,-47,o),
(620,-94,o),
(664,-125,cs),
(671,-130,o),
(678,-132,o),
(686,-132,cs)
);
}
);
width = 809;
}
);
note = x;
unicode = 120;
},
{
glyphname = y;
lastChange = "2024-06-01 14:12:38 +0000";
layers = (
{
layerId = m01;
shapes = (
{
closed = 1;
nodes = (
(347,-53,o),
(451,-5,o),
(544,47,cs),
(616,89,ls),
(639,103,o),
(664,116,o),
(689,127,cs),
(726,146,o),
(767,165,o),
(810,176,c),
(821,172,o),
(832,170,o),
(844,170,cs),
(855,171,o),
(864,176,o),
(871,183,c),
(874,183,ls),
(890,182,o),
(898,192,o),
(899,204,cs),
(899,216,o),
(892,229,o),
(879,233,c),
(874,250,o),
(865,265,o),
(854,278,cs),
(830,304,o),
(795,334,o),
(755,370,cs),
(734,388,o),
(714,407,o),
(695,426,cs),
(655,466,o),
(631,511,o),
(604,560,cs),
(597,572,o),
(592,584,o),
(587,596,cs),
(582,608,o),
(576,620,o),
(570,632,cs),
(566,640,o),
(560,652,o),
(556,664,cs),
(551,676,o),
(548,689,o),
(549,697,cs),
(550,705,o),
(545,713,o),
(538,717,cs),
(531,720,o),
(523,719,o),
(518,710,cs),
(498,671,o),
(496,626,o),
(504,581,cs),
(512,536,o),
(529,490,o),
(548,450,c),
(545,433,o),
(542,416,o),
(534,402,cs),
(526,388,o),
(515,377,o),
(495,376,cs),
(454,372,o),
(412,378,o),
(372,389,c),
(381,418,ls),
(384,428,o),
(387,438,o),
(389,448,cs),
(397,491,o),
(382,533,o),
(355,568,c),
(396,607,o),
(424,654,o),
(413,705,cs),
(410,720,o),
(392,722,o),
(383,713,cs),
(343,674,ls),
(315,649,o),
(292,628,o),
(270,617,cs),
(237,599,ls),
(215,587,o),
(193,575,o),
(177,555,cs),
(165,540,o),
(165,524,o),
(173,512,cs),
(180,499,o),
(194,491,o),
(213,494,cs),
(244,499,o),
(278,514,o),
(310,534,c),
(330,507,o),
(312,478,o),
(295,446,cs),
(280,418,o),
(268,390,o),
(265,358,cs),
(264,329,o),
(283,310,o),
(308,296,cs),
(333,282,o),
(365,274,o),
(386,269,cs),
(419,262,o),
(453,258,o),
(488,258,cs),
(559,257,o),
(608,289,o),
(632,328,c),
(643,317,o),
(653,306,o),
(664,296,cs),
(675,286,o),
(685,276,o),
(696,265,cs),
(729,232,l),
(698,227,o),
(667,220,o),
(635,209,cs),
(592,194,o),
(551,177,o),
(512,156,cs),
(472,135,o),
(431,116,o),
(389,101,cs),
(313,74,o),
(234,59,o),
(157,82,cs),
(137,89,o),
(127,98,o),
(126,111,cs),
(124,136,o),
(142,167,o),
(165,196,cs),
(176,211,o),
(184,223,o),
(187,234,cs),
(192,250,o),
(187,265,o),
(176,275,cs),
(165,285,o),
(150,289,o),
(135,286,cs),
(88,275,o),
(49,246,o),
(23,207,cs),
(-3,168,o),
(-14,120,o),
(-1,73,cs),
(14,22,o),
(51,-11,o),
(96,-31,cs),
(140,-52,o),
(194,-60,o),
(239,-57,cs)
);
}
);
width = 869;
}
);
note = y;
unicode = 121;
},
{
glyphname = z;
lastChange = "2024-06-01 14:12:38 +0000";
layers = (
{
layerId = m01;
shapes = (
{
closed = 1;
nodes = (
(640,-66,o),
(680,-54,o),
(714,-33,cs),
(748,-13,o),
(776,19,o),
(793,54,cs),
(809,87,o),
(819,131,o),
(818,172,cs),
(817,212,o),
(803,251,o),
(771,276,cs),
(762,283,o),
(750,286,o),
(736,284,cs),
(707,279,o),
(689,257,o),
(681,230,cs),
(673,203,o),
(668,174,o),
(663,146,cs),
(660,131,o),
(655,118,o),
(647,105,cs),
(638,90,o),
(606,86,o),
(591,89,cs),
(574,92,o),
(558,99,o),
(543,110,cs),
(498,140,ls),
(445,173,o),
(384,200,o),
(323,205,c),
(338,214,o),
(352,224,o),
(367,233,cs),
(381,242,o),
(395,251,o),
(408,262,cs),
(492,326,o),
(534,413,o),
(557,510,c),
(558,509,o),
(560,509,o),
(561,509,cs),
(562,509,o),
(564,509,o),
(565,508,c),
(585,503,o),
(601,510,o),
(610,523,cs),
(618,536,o),
(621,554,o),
(614,570,cs),
(590,626,o),
(542,650,o),
(487,658,cs),
(432,666,o),
(371,657,o),
(323,649,cs),
(253,638,ls),
(228,634,o),
(202,632,o),
(177,632,cs),
(126,632,o),
(76,641,o),
(40,673,cs),
(33,680,o),
(23,680,o),
(15,677,c),
(8,680,ls),
(-12,688,o),
(-28,675,o),
(-35,659,cs),
(-42,642,o),
(-40,621,o),
(-21,610,cs),
(67,559,o),
(125,483,o),
(136,380,cs),
(137,361,o),
(149,350,o),
(162,347,cs),
(175,343,o),
(191,347,o),
(202,362,cs),
(221,387,o),
(224,417,o),
(220,447,cs),
(215,477,o),
(202,506,o),
(189,531,c),
(196,530,o),
(202,530,o),
(208,530,cs),
(214,529,o),
(220,529,o),
(227,528,cs),
(256,527,o),
(284,529,o),
(313,534,cs),
(341,538,o),
(369,541,o),
(398,543,cs),
(435,546,o),
(466,540,o),
(497,529,c),
(480,490,o),
(461,451,o),
(436,415,cs),
(404,368,o),
(355,342,o),
(306,317,cs),
(261,294,o),
(211,268,o),
(171,233,cs),
(131,197,o),
(103,154,o),
(100,97,cs),
(99,73,o),
(115,57,o),
(135,52,cs),
(154,47,o),
(177,53,o),
(189,73,c),
(190,76,o),
(192,78,o),
(194,80,cs),
(198,86,l),
(205,85,o),
(211,84,o),
(218,85,cs),
(251,92,o),
(281,92,o),
(308,86,cs),
(361,73,o),
(409,38,o),
(441,14,cs),
(456,2,o),
(472,-9,o),
(489,-19,cs),
(521,-39,o),
(556,-56,o),
(600,-61,cs)
);
}
);
width = 829;
}
);
note = z;
unicode = 122;
},
{
glyphname = zero;
lastChange = "2024-06-01 14:12:38 +0000";
layers = (
{
layerId = m01;
shapes = (
{
closed = 1;
nodes = (
(323,-4,o),
(412,-2,o),
(493,25,cs),
(573,52,o),
(646,101,o),
(694,172,cs),
(721,211,o),
(736,257,o),
(737,303,cs),
(738,349,o),
(725,394,o),
(700,433,cs),
(673,470,o),
(637,495,o),
(597,510,cs),
(556,525,o),
(511,529,o),
(468,528,cs),
(454,528,o),
(443,524,o),
(434,515,c),
(434,556,o),
(433,600,o),
(427,641,cs),
(421,681,o),
(408,719,o),
(388,750,cs),
(379,763,o),
(363,768,o),
(350,767,cs),
(337,766,o),
(323,756,o),
(318,740,cs),
(311,719,o),
(308,697,o),
(310,674,cs),
(312,651,o),
(313,629,o),
(313,608,cs),
(313,584,o),
(312,561,o),
(310,538,c),
(221,538,o),
(129,504,o),
(69,440,cs),
(34,404,o),
(19,361,o),
(16,316,cs),
(12,271,o),
(23,224,o),
(42,181,cs),
(59,141,o),
(90,109,o),
(126,83,cs),
(161,57,o),
(202,36,o),
(242,23,cs)
);
},
{
closed = 1;
nodes = (
(311,130,o),
(307,131,o),
(302,131,c),
(243,140,o),
(186,174,o),
(154,219,cs),
(121,263,o),
(111,321,o),
(147,381,cs),
(176,430,o),
(239,468,o),
(307,485,c),
(304,464,o),
(303,443,o),
(302,422,cs),
(301,374,o),
(300,325,o),
(300,276,cs),
(300,226,o),
(306,177,o),
(318,129,c)
);
},
{
closed = 1;
nodes = (
(431,180,o),
(435,229,o),
(434,278,cs),
(433,327,o),
(433,375,o),
(433,422,cs),
(433,442,l),
(440,437,o),
(445,432,o),
(454,429,cs),
(499,414,o),
(545,402,o),
(584,377,cs),
(613,358,o),
(622,329,o),
(618,299,cs),
(614,269,o),
(598,238,o),
(581,217,cs),
(542,170,o),
(484,143,o),
(424,132,c)
);
}
);
width = 754;
}
);
note = zero;
unicode = 48;
},
{
glyphname = one;
lastChange = "2024-06-01 14:12:38 +0000";
layers = (
{
layerId = m01;
shapes = (
{
closed = 1;
nodes = (
(358,-50,o),
(398,-39,o),
(441,8,cs),
(452,20,o),
(453,33,o),
(449,46,cs),
(445,58,o),
(435,68,o),
(424,75,cs),
(397,90,o),
(370,95,o),
(342,98,c),
(358,141,o),
(360,187,o),
(360,234,cs),
(360,271,o),
(360,307,o),
(359,344,cs),
(358,380,o),
(360,416,o),
(363,453,cs),
(364,477,o),
(366,510,o),
(372,541,cs),
(378,572,o),
(388,601,o),
(411,617,cs),
(426,628,o),
(429,645,o),
(425,660,cs),
(421,675,o),
(408,687,o),
(392,690,c),
(355,707,o),
(325,704,o),
(298,692,cs),
(271,679,o),
(249,656,o),
(227,635,cs),
(205,614,o),
(181,596,o),
(156,589,cs),
(141,586,o),
(127,576,o),
(138,565,cs),
(154,546,o),
(172,542,o),
(192,546,cs),
(211,549,o),
(232,560,o),
(252,572,c),
(241,541,o),
(233,508,o),
(228,478,cs),
(223,448,o),
(219,420,o),
(218,400,cs),
(215,366,o),
(213,332,o),
(214,299,cs),
(214,231,o),
(212,169,o),
(193,128,c),
(173,133,o),
(154,137,o),
(134,141,cs),
(111,145,o),
(79,149,o),
(53,142,cs),
(27,135,o),
(7,119,o),
(11,84,cs),
(14,68,o),
(27,59,o),
(40,62,c),
(92,55,o),
(140,32,o),
(185,9,cs),
(230,-15,o),
(274,-38,o),
(316,-44,cs)
);
}
);
width = 471;
}
);
note = one;
unicode = 49;
},
{
glyphname = two;
layers = (
{
layerId = m01;
shapes = (
{
closed = 1;
nodes = (
(733,110,o),
(721,128,o),
(702,142,c),
(698,169,o),
(689,195,o),
(674,218,cs),
(659,241,o),
(645,264,o),
(631,287,cs),
(616,310,o),
(607,333,o),
(596,357,cs),
(592,366,o),
(588,375,o),
(583,384,cs),
(580,389,o),
(578,394,o),
(577,397,cs),
(576,399,o),
(576,398,o),
(576,394,c),
(574,404,o),
(567,413,o),
(558,419,cs),
(547,426,o),
(534,427,o),
(522,419,cs),
(501,404,o),
(494,382,o),
(494,358,cs),
(494,333,o),
(499,307,o),
(503,286,cs),
(508,258,o),
(518,227,o),
(533,199,c),
(475,211,o),
(415,217,o),
(354,217,c),
(369,238,o),
(380,256,o),
(389,270,cs),
(440,351,o),
(474,448,o),
(459,544,cs),
(447,624,o),
(395,663,o),
(334,671,cs),
(273,679,o),
(201,657,o),
(146,616,cs),
(91,575,o),
(54,513,o),
(63,445,cs),
(66,421,o),
(84,412,o),
(101,414,cs),
(117,416,o),
(132,429,o),
(128,453,cs),
(121,492,o),
(143,526,o),
(175,550,cs),
(207,574,o),
(249,589,o),
(281,590,cs),
(320,590,o),
(341,571,o),
(350,546,cs),
(358,521,o),
(356,488,o),
(348,460,cs),
(341,432,o),
(329,405,o),
(313,379,cs),
(281,326,o),
(241,276,o),
(178,221,cs),
(152,199,ls),
(143,192,o),
(135,184,o),
(128,176,c),
(72,151,o),
(27,112,o),
(11,52,cs),
(6,33,o),
(17,19,o),
(31,13,cs),
(45,7,o),
(63,10,o),
(74,26,cs),
(79,34,o),
(86,41,o),
(95,47,cs),
(111,58,o),
(131,64,o),
(152,69,cs),
(180,75,ls),
(231,88,o),
(283,90,o),
(335,89,cs),
(407,86,o),
(474,74,o),
(542,55,cs),
(555,51,o),
(570,47,o),
(585,42,cs),
(600,37,o),
(615,34,o),
(630,31,cs),
(660,26,o),
(689,25,o),
(716,37,cs),
(735,46,o),
(741,70,o),
(737,89,cs)
);
}
);
width = 748;
}
);
note = two;
unicode = 50;
},
{
glyphname = three;
lastChange = "2024-06-01 14:12:38 +0000";
layers = (
{
layerId = m01;
shapes = (
{
closed = 1;
nodes = (
(228,-43,o),
(258,-19,o),
(266,6,cs),
(274,30,o),
(287,52,o),
(305,71,cs),
(340,109,o),
(384,141,o),
(430,170,cs),
(453,184,o),
(474,199,o),
(493,214,cs),
(534,247,o),
(580,282,o),
(596,335,cs),
(608,379,o),
(581,418,o),
(548,442,cs),
(525,459,o),
(495,466,o),
(464,467,cs),
(432,467,o),
(398,462,o),
(369,455,c),
(396,502,o),
(426,548,o),
(458,593,c),
(475,601,o),
(491,610,o),
(506,621,cs),
(522,632,o),
(528,653,o),
(525,671,cs),
(521,689,o),
(508,702,o),
(484,701,cs),
(466,700,o),
(448,697,o),
(431,693,cs),
(395,685,o),
(360,675,o),
(325,665,cs),
(308,660,o),
(290,655,o),
(273,651,cs),
(248,644,o),
(209,638,o),
(171,637,cs),
(133,636,o),
(95,641,o),
(74,661,cs),
(62,672,o),
(48,670,o),
(39,663,cs),
(30,655,o),
(24,640,o),
(31,627,cs),
(46,592,o),
(75,572,o),
(108,560,cs),
(140,548,o),
(179,544,o),
(212,544,cs),
(247,543,o),
(285,546,o),
(326,552,c),
(295,513,o),
(273,472,o),
(264,424,c),
(211,405,o),
(158,378,o),
(123,337,cs),
(115,326,o),
(110,312,o),
(119,300,cs),
(126,291,o),
(130,286,o),
(141,283,cs),
(152,281,o),
(161,284,o),
(168,292,c),
(174,296,ls),
(176,297,o),
(179,299,o),
(182,300,cs),
(189,303,o),
(197,305,o),
(205,308,cs),
(212,311,o),
(220,313,o),
(227,316,cs),
(262,328,o),
(299,337,o),
(335,345,cs),
(368,352,o),
(404,357,o),
(441,358,cs),
(452,358,o),
(460,357,o),
(469,356,c),
(464,351,o),
(459,347,o),
(452,343,cs),
(429,327,o),
(407,312,o),
(384,297,cs),
(337,268,o),
(292,240,o),
(248,208,cs),
(209,180,o),
(171,150,o),
(150,106,cs),
(123,47,o),
(140,-7,o),
(200,-32,cs)
);
}
);
width = 622;
}
);
note = three;
unicode = 51;
},
{
glyphname = four;
lastChange = "2024-06-01 14:12:38 +0000";
layers = (
{
layerId = m01;
shapes = (
{
closed = 1;
nodes = (
(405,-40,o),
(432,-25,o),
(452,-1,cs),
(471,23,o),
(481,56,o),
(485,88,cs),
(489,129,o),
(476,172,o),
(460,212,c),
(535,215,ls),
(558,216,o),
(572,234,o),
(575,253,cs),
(578,272,o),
(570,292,o),
(546,296,cs),
(504,303,o),
(463,306,o),
(422,305,c),
(398,373,o),
(382,445,o),
(369,514,cs),
(365,534,o),
(361,555,o),
(356,578,cs),
(351,600,o),
(348,622,o),
(345,645,cs),
(340,689,o),
(339,735,o),
(351,775,cs),
(356,790,o),
(339,798,o),
(328,789,cs),
(303,766,o),
(289,739,o),
(281,708,cs),
(273,676,o),
(270,643,o),
(269,611,cs),
(265,526,o),
(274,442,o),
(289,358,cs),
(293,335,o),
(297,315,o),
(302,294,c),
(286,291,o),
(271,289,o),
(256,286,cs),
(245,284,o),
(235,282,o),
(225,281,cs),
(215,279,o),
(205,277,o),
(195,274,c),
(211,334,o),
(206,404,o),
(191,456,cs),
(188,469,o),
(182,483,o),
(174,500,cs),
(158,532,o),
(136,561,o),
(108,574,cs),
(79,587,o),
(41,572,o),
(45,544,c),
(45,538,l),
(48,523,o),
(62,519,o),
(74,522,c),
(81,517,o),
(86,511,o),
(91,502,cs),
(100,484,o),
(106,463,o),
(110,443,cs),
(111,433,o),
(113,425,o),
(114,419,cs),
(119,387,o),
(119,357,o),
(112,330,cs),
(105,302,o),
(99,273,o),
(92,244,c),
(80,239,o),
(69,233,o),
(58,227,cs),
(36,214,o),
(13,199,o),
(13,183,cs),
(13,175,o),
(16,168,o),
(21,162,cs),
(32,149,o),
(51,141,o),
(68,149,cs),
(84,157,o),
(101,163,o),
(119,168,cs),
(154,177,o),
(191,182,o),
(228,186,cs),
(246,188,o),
(264,190,o),
(281,193,cs),
(326,199,l),
(330,188,o),
(333,177,o),
(336,166,cs),
(339,155,o),
(343,144,o),
(346,132,cs),
(352,107,o),
(347,84,o),
(334,62,cs),
(327,51,o),
(322,39,o),
(318,28,cs),
(311,11,o),
(316,-6,o),
(327,-18,cs),
(338,-31,o),
(353,-39,o),
(369,-39,cs)
);
}
);
width = 592;
}
);
note = four;
unicode = 52;
},
{
glyphname = five;
lastChange = "2024-06-01 14:12:38 +0000";
layers = (
{
layerId = m01;
shapes = (
{
closed = 1;
nodes = (
(241,2,o),
(284,6,o),
(321,13,cs),
(410,28,o),
(492,57,o),
(564,114,cs),
(599,141,o),
(625,177,o),
(640,218,cs),
(655,258,o),
(657,302,o),
(645,346,cs),
(640,364,o),
(631,381,o),
(620,396,cs),
(597,426,o),
(566,448,o),
(531,464,cs),
(496,480,o),
(459,492,o),
(408,492,cs),
(382,492,o),
(356,490,o),
(330,485,cs),
(278,476,o),
(226,458,o),
(185,439,c),
(197,466,o),
(206,503,o),
(207,532,c),
(220,531,o),
(234,531,o),
(251,532,cs),
(283,533,o),
(316,535,o),
(348,538,cs),
(380,541,o),
(407,542,o),
(443,543,cs),
(497,546,ls),
(533,549,o),
(568,555,o),
(600,567,cs),
(621,575,o),
(633,595,o),
(633,613,cs),
(633,631,o),
(623,650,o),
(600,658,cs),
(577,667,o),
(552,672,o),
(526,674,cs),
(474,678,o),
(420,674,o),
(368,666,cs),
(342,662,o),
(317,658,o),
(293,655,cs),
(268,651,ls),
(256,649,o),
(242,647,o),
(227,645,cs),
(195,640,o),
(158,636,o),
(129,640,cs),
(100,643,o),
(78,651,o),
(75,671,cs),
(72,695,o),
(53,708,o),
(34,709,cs),
(15,709,o),
(-3,696,o),
(-3,671,cs),
(-3,631,o),
(15,603,o),
(43,584,cs),
(70,564,o),
(105,553,o),
(140,546,c),
(141,536,o),
(140,526,o),
(137,516,cs),
(132,495,o),
(121,474,o),
(112,455,cs),
(107,445,o),
(103,435,o),
(100,426,cs),
(93,411,o),
(98,397,o),
(109,388,c),
(107,386,o),
(104,384,o),
(100,381,cs),
(81,365,o),
(92,345,o),
(108,336,cs),
(124,327,o),
(145,328,o),
(149,352,cs),
(151,362,o),
(157,370,o),
(168,375,cs),
(188,385,o),
(217,388,o),
(243,389,cs),
(256,389,o),
(266,389,o),
(273,390,cs),
(316,394,o),
(358,393,o),
(400,387,cs),
(439,380,o),
(478,371,o),
(509,344,cs),
(534,323,o),
(540,298,o),
(535,274,cs),
(530,249,o),
(513,225,o),
(493,206,cs),
(456,171,o),
(406,151,o),
(352,141,cs),
(298,131,o),
(242,130,o),
(194,134,cs),
(193,134,o),
(192,134,o),
(191,135,c),
(187,135,l),
(192,138,o),
(196,140,o),
(198,141,cs),
(211,148,o),
(224,155,o),
(237,160,cs),
(250,165,o),
(263,171,o),
(276,177,cs),
(303,188,o),
(328,200,o),
(351,217,cs),
(363,226,o),
(365,243,o),
(361,257,cs),
(357,271,o),
(346,282,o),
(333,286,cs),
(292,295,o),
(249,294,o),
(208,283,cs),
(167,271,o),
(128,250,o),
(96,225,cs),
(65,201,o),
(43,167,o),
(38,132,cs),
(33,97,o),
(44,62,o),
(84,38,cs),
(117,18,o),
(159,8,o),
(200,5,cs)
);
}
);
width = 655;
}
);
note = five;
unicode = 53;
},
{
glyphname = six;
lastChange = "2024-06-01 14:12:38 +0000";
layers = (
{
layerId = m01;
shapes = (
{
closed = 1;
nodes = (
(344,12,o),
(394,25,o),
(439,48,cs),
(483,71,o),
(523,103,o),
(552,142,cs),
(580,178,o),
(599,224,o),
(601,269,cs),
(603,313,o),
(590,357,o),
(555,392,cs),
(515,433,o),
(462,446,o),
(407,442,cs),
(351,437,o),
(296,415,o),
(255,387,cs),
(222,364,o),
(194,333,o),
(178,300,cs),
(161,267,o),
(154,230,o),
(165,198,c),
(142,226,o),
(132,263,o),
(130,301,cs),
(128,339,o),
(132,378,o),
(143,413,cs),
(160,474,o),
(198,531,o),
(249,571,cs),
(300,610,o),
(361,632,o),
(428,627,cs),
(444,626,o),
(454,640,o),
(456,654,cs),
(458,668,o),
(451,681,o),
(435,684,cs),
(339,699,o),
(249,670,o),
(177,615,cs),
(105,560,o),
(51,478,o),
(28,389,cs),
(7,306,o),
(13,218,o),
(56,145,cs),
(80,102,o),
(116,72,o),
(158,50,cs),
(200,28,o),
(248,16,o),
(295,15,cs)
);
},
{
closed = 1;
nodes = (
(297,151,o),
(298,161,o),
(295,170,cs),
(288,201,o),
(296,225,o),
(310,246,cs),
(324,266,o),
(346,283,o),
(370,296,cs),
(386,305,o),
(415,313,o),
(439,311,cs),
(462,309,o),
(480,297,o),
(475,268,cs),
(467,227,o),
(443,194,o),
(409,173,cs),
(375,152,o),
(332,141,o),
(292,142,c)
);
}
);
width = 602;
}
);
note = six;
unicode = 54;
},
{
glyphname = seven;
lastChange = "2024-06-01 14:12:38 +0000";
layers = (
{
layerId = m01;
shapes = (
{
closed = 1;
nodes = (
(323,11,o),
(356,56,o),
(380,108,cs),
(403,159,o),
(416,216,o),
(427,267,cs),
(429,277,l),
(460,270,o),
(490,260,o),
(521,244,cs),
(537,235,o),
(552,242,o),
(559,254,cs),
(566,266,o),
(566,282,o),
(550,293,cs),
(515,316,o),
(479,330,o),
(440,342,c),
(444,369,o),
(449,394,o),
(454,419,cs),
(461,446,o),
(468,472,o),
(476,499,cs),
(477,504,o),
(479,511,o),
(482,519,c),
(487,520,o),
(492,522,o),
(497,525,cs),
(511,531,ls),
(534,542,o),
(535,564,o),
(524,580,c),
(549,588,o),
(557,613,o),
(550,634,cs),
(543,654,o),
(525,672,o),
(498,664,cs),
(463,653,o),
(437,631,o),
(414,603,c),
(391,601,o),
(367,598,o),
(344,593,cs),
(320,588,o),
(297,584,o),
(275,580,cs),
(242,575,o),
(209,572,o),
(176,572,cs),
(160,572,o),
(144,574,o),
(128,578,cs),
(127,578,o),
(124,579,o),
(120,581,cs),
(107,587,ls),
(102,589,o),
(98,591,o),
(95,594,cs),
(92,596,o),
(90,598,o),
(90,599,cs),
(91,614,o),
(80,624,o),
(68,628,cs),
(55,631,o),
(39,627,o),
(34,614,cs),
(18,577,o),
(34,548,o),
(63,525,cs),
(65,523,l),
(65,522,o),
(65,522,o),
(66,521,cs),
(93,489,o),
(103,443,o),
(103,403,cs),
(103,394,o),
(102,385,o),
(101,376,cs),
(97,359,o),
(96,341,o),
(97,325,cs),
(98,308,o),
(106,289,o),
(122,288,cs),
(137,287,o),
(150,302,o),
(158,325,cs),
(166,348,o),
(170,373,o),
(170,398,cs),
(170,411,o),
(170,422,o),
(169,433,cs),
(168,450,o),
(164,466,o),
(159,483,c),
(162,482,o),
(166,481,o),
(169,481,c),
(172,480,o),
(176,480,o),
(179,479,cs),
(230,470,o),
(284,477,o),
(335,484,cs),
(356,487,l),
(343,448,o),
(333,408,o),
(325,376,cs),
(324,373,o),
(323,370,o),
(323,368,c),
(321,360,l),
(308,361,o),
(294,361,o),
(280,362,cs),
(266,363,o),
(252,364,o),
(239,366,cs),
(218,369,o),
(203,357,o),
(199,342,cs),
(195,326,o),
(201,309,o),
(221,301,cs),
(248,290,o),
(276,287,o),
(303,286,c),
(294,249,ls),
(291,237,o),
(287,225,o),
(283,213,cs),
(274,184,o),
(261,159,o),
(245,136,cs),
(228,113,o),
(212,88,o),
(197,63,cs),
(181,38,o),
(189,12,o),
(206,-4,cs),
(222,-20,o),
(250,-26,o),
(274,-14,cs)
);
}
);
width = 595;
}
);
note = seven;
unicode = 55;
},
{
glyphname = eight;
lastChange = "2024-06-01 14:12:38 +0000";
layers = (
{
layerId = m01;
shapes = (
{
closed = 1;
nodes = (
(516,40,o),
(578,77,o),
(622,133,cs),
(646,162,o),
(658,201,o),
(662,241,cs),
(665,280,o),
(659,319,o),
(644,354,cs),
(628,390,o),
(603,417,o),
(572,438,cs),
(541,459,o),
(505,472,o),
(469,483,cs),
(448,490,o),
(429,484,o),
(414,469,c),
(404,473,ls),
(400,474,o),
(396,476,o),
(393,477,c),
(418,512,o),
(434,552,o),
(423,597,cs),
(408,661,o),
(363,690,o),
(308,699,cs),
(253,708,o),
(191,697,o),
(144,677,cs),
(140,675,o),
(137,672,o),
(134,669,c),
(81,642,o),
(38,594,o),
(35,533,cs),
(32,477,o),
(57,438,o),
(96,413,c),
(78,396,o),
(62,376,o),
(48,353,cs),
(17,302,o),
(12,253,o),
(24,209,cs),
(35,164,o),
(65,123,o),
(102,91,cs),
(139,59,o),
(185,34,o),
(232,22,cs),
(300,3,o),
(376,2,o),
(446,21,cs)
);
},
{
closed = 1;
nodes = (
(323,149,o),
(306,150,o),
(291,151,cs),
(256,154,o),
(215,166,o),
(184,188,cs),
(153,210,o),
(132,240,o),
(140,283,cs),
(151,338,o),
(186,369,o),
(229,384,cs),
(231,385,o),
(234,385,o),
(238,385,cs),
(243,386,o),
(249,388,o),
(255,389,cs),
(260,390,o),
(266,391,o),
(271,394,c),
(315,398,o),
(362,388,o),
(399,369,cs),
(413,362,o),
(427,361,o),
(440,366,c),
(471,349,o),
(498,326,o),
(511,299,cs),
(523,272,o),
(523,240,o),
(500,204,cs),
(491,189,o),
(477,178,o),
(460,170,cs),
(425,154,o),
(384,149,o),
(344,149,cs)
);
},
{
closed = 1;
nodes = (
(195,476,o),
(175,478,o),
(157,484,cs),
(139,490,o),
(123,501,o),
(118,521,cs),
(106,556,o),
(120,586,o),
(144,607,cs),
(168,628,o),
(201,640,o),
(232,636,cs),
(235,636,o),
(238,636,o),
(240,637,c),
(271,632,o),
(296,620,o),
(315,592,cs),
(330,569,o),
(318,546,o),
(299,526,cs),
(279,506,o),
(252,490,o),
(236,485,cs),
(234,484,l),
(227,483,o),
(221,481,o),
(214,480,cs)
);
}
);
width = 688;
}
);
note = eight;
unicode = 56;
},
{
glyphname = nine;
lastChange = "2024-06-01 14:12:38 +0000";
layers = (
{
layerId = m01;
shapes = (
{
closed = 1;
nodes = (
(512,2,o),
(533,20,o),
(534,49,cs),
(537,96,o),
(537,145,o),
(534,197,cs),
(531,248,o),
(530,300,o),
(532,352,cs),
(536,455,o),
(554,554,o),
(618,633,cs),
(635,654,o),
(633,685,o),
(619,705,cs),
(605,725,o),
(580,736,o),
(555,716,cs),
(506,679,o),
(472,631,o),
(449,575,c),
(398,659,o),
(317,701,o),
(214,684,cs),
(163,676,o),
(118,645,o),
(84,603,cs),
(50,561,o),
(28,507,o),
(25,458,cs),
(21,398,o),
(41,349,o),
(76,313,cs),
(111,277,o),
(161,254,o),
(217,247,cs),
(281,239,o),
(345,261,o),
(400,300,c),
(397,211,o),
(406,123,o),
(433,35,cs),
(441,7,o),
(466,-5,o),
(489,-1,cs)
);
},
{
closed = 1;
nodes = (
(159,371,o),
(134,396,o),
(129,445,cs),
(126,478,o),
(137,512,o),
(157,540,cs),
(177,568,o),
(205,589,o),
(237,600,cs),
(273,612,o),
(310,604,o),
(343,588,cs),
(375,571,o),
(405,544,o),
(429,519,c),
(422,491,o),
(415,462,o),
(411,433,c),
(386,414,o),
(348,394,o),
(308,379,cs),
(268,363,o),
(225,355,o),
(192,363,cs)
);
}
);
width = 650;
}
);
note = nine;
unicode = 57;
},
{
glyphname = asterisk;
lastChange = "2024-06-01 14:12:38 +0000";
layers = (
{
layerId = m01;
shapes = (
{
closed = 1;
nodes = (
(153,-38,o),
(171,-36,o),
(182,-17,cs),
(189,-6,o),
(196,6,o),
(205,18,c),
(210,17,o),
(214,18,o),
(218,22,cs),
(238,47,o),
(258,73,o),
(274,102,c),
(300,128,o),
(329,152,o),
(361,175,c),
(376,166,o),
(389,157,o),
(404,146,c),
(460,71,o),
(532,14,o),
(623,-13,cs),
(648,-20,o),
(670,-8,o),
(682,12,cs),
(693,31,o),
(693,55,o),
(674,74,cs),
(645,102,o),
(615,127,o),
(583,149,cs),
(550,170,o),
(518,192,o),
(485,214,c),
(482,218,o),
(479,222,o),
(477,226,cs),
(469,238,l),
(553,245,o),
(635,258,o),
(704,299,cs),
(724,311,o),
(732,331,o),
(729,351,cs),
(726,370,o),
(713,388,o),
(692,395,cs),
(651,407,o),
(609,406,o),
(567,396,cs),
(525,386,o),
(483,367,o),
(444,347,c),
(431,347,l),
(427,346,o),
(423,346,o),
(419,346,c),
(407,377,o),
(397,408,o),
(388,440,c),
(392,468,o),
(395,498,o),
(398,526,cs),
(405,569,o),
(406,617,o),
(381,654,cs),
(365,678,o),
(336,677,o),
(319,654,cs),
(288,614,o),
(280,563,o),
(282,509,cs),
(284,455,o),
(298,398,o),
(313,349,c),
(312,348,o),
(311,344,o),
(310,339,c),
(302,339,l),
(265,362,o),
(222,383,o),
(179,394,cs),
(135,405,o),
(93,404,o),
(57,380,cs),
(34,365,o),
(19,331,o),
(38,306,cs),
(62,274,o),
(96,254,o),
(133,242,cs),
(170,230,o),
(212,227,o),
(252,227,c),
(185,171,o),
(132,100,o),
(116,11,cs),
(112,-9,o),
(123,-24,o),
(138,-31,cs)
);
}
);
width = 833;
}
);
note = asterisk;
unicode = 42;
},
{
glyphname = exclam;
lastChange = "2024-06-01 14:12:38 +0000";
layers = (
{
layerId = m01;
shapes = (
{
closed = 1;
nodes = (
(431,185,o),
(443,187,o),
(454,195,cs),
(477,211,o),
(469,247,o),
(453,283,cs),
(437,318,o),
(424,358,o),
(417,398,cs),
(409,438,o),
(404,479,o),
(402,523,cs),
(401,545,o),
(399,567,o),
(396,589,cs),
(391,632,o),
(382,675,o),
(362,711,cs),
(355,722,o),
(344,728,o),
(331,728,cs),
(304,728,o),
(293,703,o),
(291,683,cs),
(289,662,o),
(290,639,o),
(294,618,cs),
(295,607,o),
(296,597,o),
(296,588,cs),
(296,537,o),
(296,486,o),
(301,435,cs),
(305,391,o),
(311,338,o),
(328,291,cs),
(345,244,o),
(373,204,o),
(420,188,cs)
);
},
{
closed = 1;
nodes = (
(497,-88,o),
(524,-68,o),
(533,-35,cs),
(536,-23,o),
(533,-10,o),
(526,0,cs),
(519,10,o),
(508,17,o),
(495,16,cs),
(484,15,o),
(473,13,o),
(462,11,cs),
(451,9,o),
(441,8,o),
(434,7,cs),
(422,7,ls),
(421,7,o),
(416,8,o),
(409,11,c),
(408,12,o),
(405,13,o),
(402,14,cs),
(399,15,o),
(396,17,o),
(395,18,c),
(395,21,l),
(394,22,o),
(394,23,o),
(394,24,cs),
(394,29,o),
(403,40,o),
(410,47,cs),
(429,63,o),
(461,65,o),
(484,56,c),
(497,49,o),
(509,56,o),
(515,66,cs),
(521,76,o),
(519,88,o),
(506,96,cs),
(466,120,o),
(412,133,o),
(368,112,cs),
(344,101,o),
(324,83,o),
(312,61,cs),
(300,39,o),
(295,11,o),
(300,-14,cs),
(307,-47,o),
(331,-71,o),
(363,-85,cs),
(394,-99,o),
(432,-104,o),
(465,-96,cs)
);
}
);
width = 833;
}
);
note = exclam;
unicode = 33;
},
{
glyphname = period;
layers = (
{
layerId = m01;
shapes = (
{
closed = 1;
nodes = (
(260,188,ls),
(263,248,o),
(218,273,o),
(163,264,cs),
(107,255,o),
(65,214,o),
(38,166,cs),
(17,126,o),
(17,84,o),
(34,50,cs),
(50,16,o),
(85,-8,o),
(132,-11,cs),
(172,-14,o),
(206,7,o),
(232,36,cs),
(258,65,o),
(276,103,o),
(285,136,cs),
(292,159,o),
(279,178,o),
(260,186,c)
);
},
{
closed = 1;
nodes = (
(137,112,o),
(136,111,o),
(135,111,c),
(135,112,o),
(135,114,o),
(136,116,c),
(138,124,ls),
(140,129,o),
(143,135,o),
(147,142,cs),
(157,160,l),
(156,157,o),
(155,156,o),
(155,156,c),
(155,156,o),
(156,157,o),
(157,158,cs),
(163,166,ls),
(166,169,o),
(168,171,o),
(171,173,c),
(178,180,ls),
(181,183,o),
(197,192,o),
(202,195,c),
(206,195,l),
(206,188,ls),
(206,181,o),
(207,176,o),
(210,173,c),
(187,150,o),
(165,128,o),
(138,113,c)
);
}
);
width = 292;
}
);
note = period;
unicode = 46;
},
{
glyphname = question;
layers = (
{
layerId = m01;
shapes = (
{
closed = 1;
nodes = (
(726,623,o),
(694,656,o),
(652,676,cs),
(610,696,o),
(556,701,o),
(511,698,cs),
(398,691,o),
(288,657,o),
(203,581,cs),
(187,566,o),
(189,545,o),
(201,530,cs),
(213,515,o),
(233,507,o),
(250,520,cs),
(321,575,o),
(404,597,o),
(491,606,cs),
(510,607,o),
(528,608,o),
(546,607,cs),
(582,606,o),
(611,597,o),
(626,581,cs),
(641,564,o),
(637,547,o),
(614,531,cs),
(591,515,o),
(561,503,o),
(531,493,cs),
(501,483,o),
(482,476,o),
(450,471,cs),
(417,466,o),
(383,457,o),
(355,444,cs),
(326,431,o),
(305,404,o),
(314,380,c),
(313,378,o),
(313,375,o),
(313,372,cs),
(313,371,ls),
(313,368,o),
(315,361,o),
(316,358,cs),
(317,356,o),
(317,354,o),
(318,352,c),
(318,349,o),
(318,347,o),
(319,345,c),
(320,330,o),
(325,316,o),
(330,301,cs),
(339,272,o),
(348,245,o),
(371,224,cs),
(380,215,o),
(396,211,o),
(409,214,cs),
(422,217,o),
(434,226,o),
(437,241,cs),
(442,276,o),
(437,306,o),
(426,339,cs),
(425,342,o),
(424,344,o),
(424,345,c),
(428,346,o),
(432,347,o),
(436,348,cs),
(447,351,ls),
(490,364,o),
(532,378,o),
(572,393,cs),
(605,408,o),
(648,429,o),
(681,458,cs),
(713,486,o),
(735,523,o),
(731,567,cs)
);
},
{
closed = 1;
nodes = (
(476,75,o),
(474,79,o),
(470,83,cs),
(461,91,o),
(451,98,o),
(440,105,cs),
(418,118,o),
(394,129,o),
(370,131,cs),
(345,133,o),
(318,127,o),
(297,108,cs),
(276,89,o),
(262,63,o),
(258,35,cs),
(254,7,o),
(264,-27,o),
(289,-44,cs),
(313,-61,o),
(344,-66,o),
(377,-58,cs),
(409,-51,o),
(438,-34,o),
(458,-9,cs),
(478,15,o),
(483,41,o),
(472,58,c),
(475,61,o),
(476,65,o),
(476,70,cs)
);
},
{
closed = 1;
nodes = (
(424,63,l),
(411,48,o),
(392,39,o),
(376,32,cs),
(364,28,o),
(361,28,o),
(348,28,cs),
(346,28,ls),
(343,28,o),
(342,28,o),
(341,29,c),
(341,34,ls),
(341,47,o),
(347,57,o),
(358,64,cs),
(378,77,o),
(403,74,o),
(426,63,c)
);
}
);
width = 833;
}
);
note = question;
unicode = 63;
},
{
glyphname = hyphen;
lastChange = "2024-06-01 14:12:38 +0000";
layers = (
{
layerId = m01;
shapes = (
{
closed = 1;
nodes = (
(141,229,o),
(188,244,o),
(229,253,cs),
(280,265,o),
(330,278,o),
(381,291,cs),
(433,304,o),
(485,312,o),
(537,316,cs),
(588,320,o),
(641,325,o),
(694,331,cs),
(715,332,o),
(734,351,o),
(742,371,cs),
(749,391,o),
(744,413,o),
(719,424,cs),
(667,447,o),
(614,454,o),
(559,454,cs),
(504,453,o),
(449,443,o),
(396,431,cs),
(339,419,o),
(285,403,o),
(229,384,cs),
(215,379,o),
(200,375,o),
(185,371,cs),
(169,367,o),
(153,362,o),
(138,357,cs),
(133,356,o),
(129,354,o),
(127,353,cs),
(126,352,o),
(125,351,o),
(124,351,c),
(109,344,o),
(96,337,o),
(85,326,c),
(69,315,o),
(64,298,o),
(68,282,cs),
(72,266,o),
(84,251,o),
(100,244,cs)
);
}
);
width = 833;
}
);
note = hyphen;
unicode = 45;
},
{
glyphname = dollar;
lastChange = "2024-06-01 14:12:38 +0000";
layers = (
{
layerId = m01;
shapes = (
{
closed = 1;
nodes = (
(243,-33,o),
(267,-23,o),
(278,4,c),
(278,20,o),
(280,36,o),
(284,53,cs),
(287,70,o),
(289,89,o),
(289,110,c),
(320,110,o),
(352,110,o),
(384,121,c),
(432,132,o),
(487,149,o),
(528,180,cs),
(569,211,o),
(596,252,o),
(585,311,cs),
(580,343,o),
(558,364,o),
(533,377,cs),
(508,389,o),
(479,395,o),
(458,395,c),
(431,400,o),
(405,404,o),
(379,406,cs),
(352,408,o),
(326,412,o),
(299,417,c),
(299,438,l),
(288,481,o),
(289,534,o),
(289,575,c),
(299,570,o),
(311,564,o),
(325,559,cs),
(339,553,o),
(352,545,o),
(363,534,c),
(368,523,o),
(376,523,o),
(381,528,cs),
(386,533,o),
(389,544,o),
(384,555,c),
(352,586,o),
(321,607,o),
(278,618,c),
(278,650,l),
(275,661,o),
(273,673,o),
(270,686,cs),
(267,699,o),
(262,712,o),
(257,725,cs),
(246,750,o),
(231,772,o),
(204,777,c),
(183,777,o),
(165,769,o),
(154,757,cs),
(142,745,o),
(140,729,o),
(151,713,c),
(156,697,o),
(160,681,o),
(162,666,cs),
(163,650,o),
(167,634,o),
(172,618,c),
(140,618,o),
(119,607,o),
(98,586,c),
(45,555,o),
(34,501,o),
(45,449,c),
(68,394,o),
(119,365,o),
(172,354,c),
(172,349,o),
(174,345,o),
(177,344,cs),
(179,343,o),
(181,343,o),
(183,343,c),
(183,322,o),
(185,302,o),
(188,285,cs),
(191,268,o),
(193,248,o),
(193,227,c),
(172,232,o),
(150,239,o),
(128,248,cs),
(106,257,o),
(82,264,o),
(56,269,c),
(40,274,o),
(24,266,o),
(15,253,cs),
(6,240,o),
(2,221,o),
(13,205,cs),
(56,142,o),
(119,121,o),
(183,110,c),
(183,15,ls),
(183,-12,o),
(202,-27,o),
(223,-30,cs)
);
},
{
closed = 1;
nodes = (
(156,449,o),
(133,462,o),
(122,479,cs),
(111,496,o),
(113,517,o),
(140,544,cs),
(151,555,o),
(161,565,o),
(172,565,c),
(172,522,o),
(172,481,o),
(183,438,c)
);
},
{
closed = 1;
nodes = (
(304,237,o),
(307,256,o),
(307,273,cs),
(307,290,o),
(304,306,o),
(299,322,c),
(314,322,o),
(330,320,o),
(345,317,cs),
(360,313,o),
(373,311,o),
(384,311,cs),
(415,311,o),
(458,301,o),
(479,290,cs),
(484,287,o),
(486,284,o),
(485,281,cs),
(481,273,o),
(471,265,o),
(460,258,cs),
(454,254,o),
(450,251,o),
(447,248,c),
(426,237,o),
(402,231,o),
(377,228,cs),
(352,225,o),
(326,221,o),
(299,216,c)
);
}
);
width = 578;
}
);
note = dollar;
unicode = 36;
},
{
glyphname = plus;
lastChange = "2024-06-01 14:12:38 +0000";
layers = (
{
layerId = m01;
shapes = (
{
closed = 1;
nodes = (
(504,3,o),
(520,28,o),
(515,57,cs),
(507,97,o),
(499,137,o),
(492,178,cs),
(485,218,o),
(477,258,o),
(470,298,c),
(592,298,ls),
(624,298,o),
(642,321,o),
(646,346,cs),
(649,370,o),
(636,397,o),
(607,406,cs),
(555,422,o),
(502,428,o),
(449,431,c),
(442,474,o),
(435,516,o),
(426,559,cs),
(423,572,o),
(421,585,o),
(418,600,cs),
(415,615,o),
(411,629,o),
(406,643,cs),
(396,671,o),
(382,696,o),
(362,715,cs),
(349,727,o),
(332,729,o),
(319,725,cs),
(306,720,o),
(294,709,o),
(290,696,cs),
(287,683,o),
(286,671,o),
(287,658,cs),
(288,633,o),
(293,607,o),
(298,582,cs),
(303,557,o),
(308,525,o),
(313,487,cs),
(315,468,o),
(317,448,o),
(320,429,c),
(319,429,ls),
(305,428,o),
(290,427,o),
(273,428,cs),
(239,428,o),
(203,427,o),
(172,419,cs),
(140,411,o),
(111,391,o),
(114,363,c),
(113,351,o),
(117,338,o),
(130,327,cs),
(141,318,o),
(153,312,o),
(168,309,cs),
(196,301,o),
(226,300,o),
(257,301,cs),
(272,302,o),
(286,302,o),
(299,301,cs),
(317,301,ls),
(323,301,o),
(329,301,o),
(334,300,c),
(347,200,o),
(364,103,o),
(415,15,cs),
(431,-13,o),
(458,-17,o),
(481,-7,cs)
);
}
);
width = 833;
}
);
note = plus;
unicode = 43;
},
{
glyphname = at;
lastChange = "2024-06-01 14:12:38 +0000";
layers = (
{
layerId = m01;
shapes = (
{
closed = 1;
nodes = (
(350,27,o),
(426,32,o),
(493,59,cs),
(560,86,o),
(615,132,o),
(640,200,c),
(688,200,l),
(700,205,o),
(707,218,o),
(709,231,cs),
(711,243,o),
(706,254,o),
(701,261,c),
(664,285,o),
(627,298,o),
(592,310,cs),
(556,322,o),
(523,335,o),
(492,360,c),
(453,373,o),
(430,408,o),
(406,445,cs),
(381,483,o),
(356,520,o),
(331,556,c),
(325,563,o),
(319,566,o),
(314,566,cs),
(309,566,o),
(306,563,o),
(306,556,cs),
(306,520,o),
(319,483,o),
(331,458,c),
(312,458,o),
(296,455,o),
(282,450,cs),
(268,445,o),
(252,439,o),
(234,434,c),
(183,397,o),
(158,335,o),
(183,286,cs),
(214,230,o),
(263,209,o),
(315,210,cs),
(366,211,o),
(418,237,o),
(454,273,c),
(479,249,o),
(517,236,o),
(553,225,c),
(516,200,o),
(482,178,o),
(447,163,cs),
(411,148,o),
(374,139,o),
(331,139,c),
(283,144,o),
(233,165,o),
(193,197,cs),
(153,228,o),
(122,267,o),
(110,310,cs),
(91,378,o),
(107,439,o),
(141,487,cs),
(175,535,o),
(226,569,o),
(282,581,cs),
(418,606,o),
(552,570,o),
(640,470,c),
(640,464,o),
(642,463,o),
(646,467,cs),
(650,471,o),
(652,476,o),
(652,483,c),
(627,514,o),
(605,541,o),
(581,564,cs),
(556,587,o),
(528,606,o),
(492,618,c),
(429,654,o),
(345,654,o),
(270,643,cs),
(183,631,o),
(113,590,o),
(67,534,cs),
(21,477,o),
(0,402,o),
(12,322,c),
(17,247,o),
(52,183,o),
(101,135,cs),
(149,86,o),
(214,51,o),
(282,39,cs)
);
},
{
closed = 1;
nodes = (
(306,289,o),
(282,291,o),
(258,310,c),
(233,335,o),
(239,359,o),
(259,379,cs),
(279,399,o),
(313,414,o),
(344,421,c),
(356,384,o),
(369,360,o),
(393,335,c),
(374,316,o),
(353,301,o),
(330,295,cs)
);
}
);
width = 720;
}
);
note = at;
unicode = 64;
},
{
glyphname = ampersand;
lastChange = "2024-06-01 14:12:38 +0000";
layers = (
{
layerId = m01;
shapes = (
{
closed = 1;
nodes = (
(311,52,o),
(333,54,o),
(353,59,cs),
(417,74,o),
(478,113,o),
(521,168,c),
(558,121,o),
(615,96,o),
(672,85,cs),
(692,81,o),
(712,92,o),
(724,108,cs),
(735,124,o),
(736,144,o),
(716,160,cs),
(699,174,o),
(681,187,o),
(662,199,cs),
(643,211,o),
(625,224,o),
(608,239,cs),
(591,255,o),
(578,279,o),
(570,304,cs),
(561,329,o),
(556,356,o),
(556,379,cs),
(556,395,o),
(547,404,o),
(535,407,cs),
(523,410,o),
(510,405,o),
(502,394,cs),
(478,362,o),
(471,323,o),
(475,284,c),
(456,271,o),
(437,257,o),
(418,243,cs),
(399,229,o),
(378,216,o),
(357,205,cs),
(350,201,o),
(324,191,o),
(300,186,cs),
(275,181,o),
(251,181,o),
(250,198,cs),
(249,218,o),
(257,239,o),
(269,257,cs),
(281,275,o),
(297,292,o),
(310,305,cs),
(330,326,o),
(353,342,o),
(378,357,c),
(379,358,o),
(380,358,o),
(381,358,cs),
(389,359,o),
(400,362,o),
(414,366,cs),
(441,373,o),
(464,386,o),
(471,405,cs),
(478,424,o),
(448,452,o),
(420,459,cs),
(391,466,o),
(360,464,o),
(329,458,cs),
(314,455,o),
(300,452,o),
(287,451,cs),
(261,447,ls),
(248,445,o),
(234,444,o),
(221,444,cs),
(193,444,o),
(167,448,o),
(166,464,cs),
(165,475,o),
(175,485,o),
(188,494,cs),
(200,502,o),
(215,508,o),
(223,511,cs),
(252,523,o),
(291,536,o),
(322,520,cs),
(335,513,o),
(347,519,o),
(352,528,cs),
(357,537,o),
(357,551,o),
(345,559,cs),
(317,578,o),
(276,585,o),
(235,582,cs),
(194,579,o),
(152,566,o),
(121,543,cs),
(90,520,o),
(69,488,o),
(72,448,cs),
(73,412,o),
(89,388,o),
(110,372,cs),
(131,356,o),
(160,347,o),
(192,343,c),
(167,318,o),
(148,289,o),
(135,256,cs),
(110,190,o),
(131,122,o),
(164,94,cs),
(196,65,o),
(240,52,o),
(288,52,cs)
);
}
